<?xml version="1.0" encoding="utf-8"?>
<!-- Generator: Adobe Illustrator 23.0.1, SVG Export Plug-In . SVG Version: 6.00 Build 0)  -->
<svg version="1.1" id="Layer_1" xmlns="http://www.w3.org/2000/svg" xmlns:xlink="http://www.w3.org/1999/xlink" x="0px" y="0px"
	 viewBox="0 0 545 540" style="enable-background:new 0 0 545 540;" xml:space="preserve">
<style type="text/css">
	.st0{fill-rule:evenodd;clip-rule:evenodd;fill:#6730C1;}
	.st1{filter:url(#Adobe_OpacityMaskFilter);}
	.st2{fill-rule:evenodd;clip-rule:evenodd;fill:#FFFFFF;}
	.st3{mask:url(#mask-2_1_);fill-rule:evenodd;clip-rule:evenodd;fill:#6730C1;}
	.st4{filter:url(#Adobe_OpacityMaskFilter_1_);}
	.st5{mask:url(#mask-4_1_);fill-rule:evenodd;clip-rule:evenodd;fill:#6730C1;}
</style>
<title>world-network</title>
<g id="home">
	<g id="world-network">
		<g id="Group-43" transform="translate(2.000000, 0.000000)">
			<path id="Fill-1" class="st0" d="M74.6,454.7l0.8-1c0.1,0.1,11.8,8.7,43.7,0.9c29.5-7.3,82.6-30.5,168.5-100.1
				c7.4-6,15-12.3,22.6-18.8l1.7,1.7c-7.6,6.5-15.2,12.8-22.6,18.8c-86.3,69.9-140.6,92.5-170.2,99.7
				C86.7,463.8,75.1,455.1,74.6,454.7"/>
			<path id="Fill-3" class="st0" d="M25.2,381.9c-0.2-0.3-4.5-7.8,6.3-26.3c9.8-16.9,34.8-46.6,97.7-92.2
				c42.9-31.2,94.5-62.8,145-88.9l1.2,1.4c-50.5,26.1-102,57.7-144.9,88.9C10.6,351.9,25.8,381.2,26,381.5L25.2,381.9z"/>
			<path id="Fill-5" class="st0" d="M0.5,279.2c0-0.2-2.6-18.1,6.3-45c8.2-24.8,28.2-62.5,76.7-101.4c39.8-31.9,97.6-57,158.5-69
				c21.2-4.2,42.3-6.7,63-7.4c32.5-1.2,63,1.9,90.8,9.2l-0.3,1.1c-27.7-7.2-58.8-9.4-91.2-8.3c-20.6,0.8-41.7,3.2-62.8,7.4
				c-60.8,11.9-117.7,36.2-157.4,67.9C36,172.3,16.1,209.8,7.9,234.4c-8.9,26.7-6.3,44.4-6.3,44.6L0.5,279.2z"/>
			<path id="Fill-7" class="st0" d="M176.2,520.3l0.5-1c0.2,0.1,24,11.5,62.6,7.5c35.6-3.6,91.5-21.4,155.3-85.5
				c65.7-66,90.7-138.2,100.1-187.1c10.9-56.9,6-111.7-12.7-143.1l1-0.6c18.8,31.7,23.8,86.8,12.8,143.9
				c-9.4,49.1-33.6,122.3-99.5,188.4c-64.1,64.3-121.1,81.5-156.9,85.1C200.5,531.9,176.5,520.4,176.2,520.3"/>
			<path id="Fill-9" class="st0" d="M407.6,367.4c-5.8-4.8-10.9-9.2-14.7-12.6l1.6-1.8c18.7,16.9,65.5,55.7,94.9,51.5
				c7.4-1.1,13.2-4.9,17.2-11.4l1.1,0.7c-4.2,6.9-10.3,10.9-18.2,12C465.8,409.2,430.3,386,407.6,367.4"/>
			<path id="Fill-11" class="st0" d="M299,247.2c-29.7-41-53.6-81.9-71.1-121.6c-26.2-59.5-23.7-91.1-17.6-106.5
				c4.6-11.7,11.7-14.8,12-14.9l0.5,1.2c-0.1,0-7,3.1-11.4,14.3c-6,15.1-7.6,45.6,18.3,104.5c17.4,39.6,41.3,80.4,70.9,121.3
				L299,247.2z"/>
			<path id="Fill-13" class="st0" d="M264.2,462.4c-11.2-9.2-21.9-18.7-31.5-27.8c-19-17.8-50.6-51.2-80.3-94
				c-24.2-34.9-55.6-89-70.6-144.4C67.5,143.8,70,112.8,74.6,96c5-18.3,13.3-24.1,13.7-24.4l0.6,0.9c-0.1,0.1-8.4,5.9-13.3,23.9
				c-4.5,16.7-6.9,47.5,7.2,99.5c28.9,106.4,118.6,207.8,150.7,237.9c44.2,41.4,108.7,93.7,159.7,70.6l0.5,1
				C353.3,523.7,304.7,495.5,264.2,462.4"/>
			<path id="Fill-15" class="st0" d="M141.7,490.4c-5-4.1-9.4-7.9-13-11.4l-0.7-0.6c-20.1-19.2-61.8-59-97.8-136.7
				c-36-77.9-23-131.9-22.8-132.4l0.8,0.2C8.2,210-4.8,263.7,31.1,341.3c35.9,77.6,77.6,117.3,97.6,136.5l0.7,0.6
				c19.4,18.6,61.4,49.3,91.3,53l-0.1,0.8C196,529.3,163.5,508.2,141.7,490.4"/>
			<path id="Fill-17" class="st0" d="M219.8,532.3l0.1-0.3c2.5,1.2,26.9,7.4,49.2-2.4c16.1-7.1,27.3-20.6,33.4-40.3
				c15.9-51.8-4.1-127.7-53.5-203c-21.1-32.2-50.8-64.3-81.5-88.3c-24.1-18.8-60-41.3-93.9-41.6c-29.8-0.3-46,14.3-54.3,26.5
				c-9,13.3-11.1,26.8-11.1,26.9l-0.7-0.3c0-0.1,2.4-13.5,11.5-26.9c5.3-7.8,12-14.1,19.9-18.5c9.8-5.5,21.5-8.3,34.7-8.2
				c13.9,0.1,29.4,4.1,46.1,11.7c15.4,7.1,31.6,17.2,48,30c30.7,24,60.4,56.2,81.6,88.4c22.2,33.9,39.2,69.4,49.1,102.6
				c11.5,38.8,13,72.7,4.5,100.6c-6.1,19.8-17.4,33.4-33.5,40.5C246.8,539.7,222.3,533.5,219.8,532.3"/>
			<path id="Fill-19" class="st0" d="M121.7,297.5c-25.2-20.5-47.6-27.1-59.2-26.4c-20.3,1.2-41.6,8.1-45.5,50.5
				c-2,22.5,6.3,47.9,13.6,65.2c7.9,18.8,16.5,32.4,16.5,32.6c13.8,18,27.5,32.6,40.8,43.5c29.7,24.2,52.3,25.6,66,22.4
				c16.9-3.9,27.7-15.6,31.9-24.5c8.9-19,9.7-68.8-26.1-121.2C148.5,323.1,135.7,308.9,121.7,297.5 M88.1,464
				c-13.3-10.9-27.2-25.3-41-43.3c-0.5-0.1-9.1-14.1-17-32.9c-7.3-17.4-15.8-42.6-13.8-65.1c1.8-19.8,7.9-34.4,17.8-42.5
				c8.9-7.4,19.9-8.9,28.5-9.4c11.6-0.7,34.2,5.9,59.4,26.5c14,11.4,26.8,25.6,38.1,42.2c35.9,52.5,35.1,102.4,26.2,121.5
				c-4.2,9-15.1,20.9-32.1,24.7c-9.1,2.1-18.8,1.8-29.1-1.3C113.1,480.9,100.8,474.4,88.1,464"/>
			<path id="Fill-21" class="st0" d="M393.3,505.8l-0.3-1c49.1-22.2,29.7-99,20.3-136.2c-0.4-1.4-0.7-2.7-1-4
				c-4.3-17.2-25.4-65.5-59-119.1c-28.5-45.6-74.3-108.2-130.6-147.7c-25.3-17.7-48.3-29.9-68.5-36.1c-15.7-4.9-30.1-6.3-41.9-3.9
				C95.4,61.2,89,71.1,89,71.2l-0.7-0.5c0.1-0.1,6.5-10.2,23.6-13.7c11.8-2.4,26.6-0.4,42.4,4.4c20.2,6.2,43.2,18.4,68.6,36.2
				c56.3,39.5,102.1,102.2,130.7,147.8c33.6,53.7,54.7,102,59,119.2c0.3,1.3,0.7,2.6,1,4C423,405.9,442.6,483.4,393.3,505.8"/>
			<path id="Fill-23" class="st0" d="M505.9,394.8c13.9-28.5,2.6-68-8.3-95.1c-5.1-12.8-53.1-128-153-225.9
				C295.7,25.9,266,10.6,249,5.6c-18.4-5.4-25.3,0.5-25.4,0.6l-1.1-0.9c0.1-0.1,7.1-6.1,25.6-0.7c10.9,3.2,23.5,9.6,37.6,19.2
				c17.6,11.9,37.5,28.7,59.1,49.9c40.3,39.5,76.8,86.1,108.3,138.5c26.8,44.5,41,78.2,44.8,87.5c10.9,27.2,23.1,67.4,9.2,96.1
				L505.9,394.8z"/>
			<path id="Fill-25" class="st0" d="M74.8,454.5c-18.5-21.7,10.6-78.3,79.7-155.3c72.2-80.5,168.1-148,208.8-172.4
				c40.6-24.4,78.8-38.3,99.6-36.3c7.4,0.7,12.9,3.2,16.3,7.5c4.6,5.7,3.9,12.7,3.9,12.8l-0.7,0.2c0-0.1,1.1-7.2-3.5-12.8
				c-3.4-4.2-8.8-6.7-16.1-7.4c-10.5-1-25.7,2.1-43.9,8.9c-17.2,6.5-36.4,15.9-55.5,27.4c-40.6,24.4-136.5,91.9-208.7,172.4
				c-35.5,39.6-60.4,73.5-73.9,100.8c-12.5,25.2-13.8,43.1-5.1,53.3L74.8,454.5z"/>
			<path id="Fill-27" class="st0" d="M140.5,501.3c-12.5-10.2-23.2-24-31.8-40c-12.3-22.9-19.8-50.9-21.5-80.9
				c-1.9-32.8,2.8-67.4,13.9-102.9c32.1-102.1,101.7-164.8,140.3-193.2c7-5.2,14-9.9,20.6-14c17.6-10.9,50.7-25.1,86.1-29.1
				l-0.1,0.6c-35.3,4-68.3,17.9-85.9,28.8c-6.6,4.1-13.5,8.8-20.6,14c-38.6,28.3-108.2,91-140.2,193c-21.3,68-18.6,134.9,7.6,183.5
				c16,29.8,40,50.6,67.6,58.5l-0.2,1C163.5,516.9,151.3,510.2,140.5,501.3"/>
			<path id="Fill-29" class="st0" d="M50.1,366.1c-29.7-24.2-46.7-56.4-49.9-96.9l0.7-0.7c3.4,42.9,22,77.1,55.1,101.7
				c64.4,47.7,165.9,47.5,239.5,31.3c59.2-13,115.6-41.1,158.8-79.1c43.2-38,67.1-80.6,67.2-119.9c0.1-32-10.3-55.2-19-69.1
				c-9.4-15-19-22.6-19.1-22.7l0.2-0.3c0.1,0.1,9.7,7.7,19.2,22.7c8.7,13.9,19.1,37.2,19.1,69.3c0,19.9-6.2,40.7-18.2,61.8
				c-11.6,20.3-28.1,39.9-49.1,58.4c-20.9,18.4-45.1,34.6-72,48.1c-27.8,14-57,24.4-86.9,31c-42.1,9.3-87.4,12-127.5,7.8
				c-21.9-2.3-42.3-6.6-60.6-12.8c-19.7-6.7-37-15.5-51.6-26.3C53.8,369.1,52,367.6,50.1,366.1"/>
			<path id="Fill-31" class="st0" d="M114,415.7c-10.8-8.8-21-18.4-30.5-28.8c-40.5-44-63-95.7-63.6-145.6
				c-0.3-24.6,2.8-48.5,9.1-71c5-18,12.1-35.2,21.1-51c15.3-27,30.9-41,31.1-41.2l0.2,0.2c-0.2,0.1-15.8,14.1-31,41.1
				c-14.1,24.9-30.8,66.2-30.2,121.9c1.2,108.6,103.1,205,197.6,226.9c94.5,21.9,167.6,9.3,237-40.9c70.1-50.7,99.9-142.1,76-232.9
				l0.3-0.1c11.9,45.2,11,91-2.7,132.4c-13.6,41-38.9,75.9-73.4,100.9c-35.2,25.5-70.8,41.1-108.9,47.7
				c-38.2,6.6-80.2,4.4-128.4-6.7C182.1,460.4,145.7,441.7,114,415.7"/>
			<path id="Fill-33" class="st0" d="M442.9,473.5l-0.2-0.3c59.1-50.3,92.4-135.1,87-221.1c-2.8-44.1-15.4-79.7-25.5-101.8
				c-10.9-24-21.3-37.7-21.4-37.8l0.3-0.2c0.1,0.1,10.5,13.9,21.5,37.9c10.1,22.1,22.7,57.8,25.5,101.9
				c2.7,42.1-3.8,84.8-18.8,123.3C496,414.5,472.4,448.4,442.9,473.5"/>
			<path id="Fill-35" class="st0" d="M3.1,219.9C26.4,94,137.3,1.6,266.8,0.2c16.7-0.2,33.5,1.2,50.1,4.1l-0.1,0.8
				c-16.5-2.9-33.3-4.2-49.9-4C137.7,2.4,27.1,94.5,3.9,220L3.1,219.9z"/>
			<path id="Fill-37" class="st0" d="M217.7,531.8l0.2-1.1c34.6,6.7,70.3,5.9,104.7-0.7l-0.5,1.9
				C287.6,538.5,252.5,538.5,217.7,531.8"/>
			<path id="Fill-39" class="st0" d="M499.7,409.3c17.7-28,29.9-58.8,36.2-91.6c6.2-32.3,6.4-64.9,0.7-96.8
				c-3.8-21.1-10.3-41.8-19.1-61.5l0.3-0.1c8.9,19.7,15.3,40.4,19.2,61.6c5.8,32,5.6,64.6-0.7,96.9c-6.3,32.8-18.5,63.7-36.2,91.7
				L499.7,409.3z"/>
			<path id="Fill-41" class="st0" d="M29.2,385.6c-1.3-1.1-2.5-2.2-3.6-3.5l0.7-0.7c7,7.7,12.9,12.6,53.3,7.2
				c40.2-5.4,139.6-44.4,230-98.2c109.2-64.9,157.6-115.7,176.7-140.2c8.9-11.4,11.9-21.1,9.3-28.3c-2.9-8.4-12.9-10-13-10l0.4-0.7
				c0.1,0,10.1,2.4,13.1,11c2.6,7.3-0.6,16.9-9.5,28.3c-19.1,24.5-67.5,75.4-176.8,140.3c-90.5,53.8-189.9,92.9-230.1,98.2
				C47,393.3,36.4,391.5,29.2,385.6"/>
		</g>
		<g id="Group-87" transform="translate(1.000000, 0.000000)">
			<path id="Fill-44" class="st0" d="M229.4,3.3l0.4,1.3c-0.1,0-14,4.6-26,35.1c-11.2,28.2-23,85-16.1,195.3
				c0.6,9.5,1.3,19.3,2.2,29.3l-2.4,0.4c-0.8-10-1.6-19.8-2.2-29.3c-6.9-110.9,6.2-168.2,17.4-196.5C214.9,8,228.8,3.5,229.4,3.3"/>
			<path id="Fill-46" class="st0" d="M317.1,5.3c0.4,0,9,0.9,17.7,20.4c8,17.8,17.8,55.3,18.5,133c0.5,53.1-3.6,113.3-11.6,169.7
				l-1.9,0.2c8-56.3,12.1-116.6,11.6-169.6c-1.4-148.3-34-152.8-34.4-152.9L317.1,5.3z"/>
			<path id="Fill-48" class="st0" d="M415,44.7c0.2,0.1,16.3,8.4,33,31.2c15.4,21.1,34.5,59.2,38,121.2
				c2.9,50.9-10.1,112.6-35.6,169.2c-8.9,19.7-19.1,38.4-30.4,55.6c-17.8,27.2-38,50.3-60,68.7l-0.7-0.9
				c21.9-18.4,41.7-42.5,59.5-69.6c11.3-17.2,21.5-35.9,30.3-55.5c25.5-56.5,38.7-116.9,35.8-167.6c-3.5-61.7-22.5-99.6-37.8-120.6
				c-16.6-22.7-32.5-30.9-32.6-31L415,44.7z"/>
			<path id="Fill-50" class="st0" d="M117.2,48.2l0.5,1c-0.2,0.1-23.2,12.9-42.4,46.7C57.7,127,39.8,182.8,54.9,271.9
				c15.6,91.8,59.9,154,94.3,190c39.9,41.8,87.3,69.6,123.7,72.6l-0.1,1.1c-36.6-3-84.3-30.9-124.4-72.9
				c-34.5-36.1-80-98.2-95.6-190.3c-15.2-89.5,3.9-145.9,21.6-177.2C93.7,61.3,116.9,48.3,117.2,48.2"/>
			<path id="Fill-52" class="st0" d="M107.6,325.3c7.2-2,13.7-3.6,18.8-4.7l0.6,2.4c-24.6,5.5-83.2,21.1-96.8,47.6
				c-3.4,6.7-3.7,13.6-0.7,20.6l-1.2,0.5c-3.1-7.4-2.9-14.7,0.7-21.8C40,348.6,79.4,333.1,107.6,325.3"/>
			<path id="Fill-54" class="st0" d="M268.2,306.4c50.5-0.5,97.6,3.7,140,12.5c63.5,13.1,87.8,33.4,96.8,47.3
				c6.8,10.5,5.2,18.1,5.2,18.4l-1.3-0.3c0-0.1,1.5-7.5-5-17.5c-8.9-13.6-32.6-32.6-95.6-45.6c-42.3-8.7-89.3-12.9-139.7-12.5
				L268.2,306.4z"/>
			<path id="Fill-56" class="st0" d="M113.3,153.5c14-3.8,27.9-7,40.8-9.6c25.5-5.2,71-11.6,123-11c42.4,0.5,104.5,6.2,158.3,26.1
				c50.8,18.7,74.6,38.7,85.6,52.2c12,14.7,11.9,24.8,11.9,25.3l-1.1,0c0-0.1,0.1-10.2-11.8-24.6c-10.9-13.3-34.6-33.1-85.1-51.8
				c-103.3-38.1-237.6-23.7-280.7-15C95.2,157,15.3,179.4,4.5,234.2L3.5,234C11.9,190.6,63,167.3,113.3,153.5"/>
			<path id="Fill-58" class="st0" d="M161.4,37.4c6.2-1.7,11.9-3,16.8-4l0.9-0.2c27.2-5.3,83.8-16.2,167.8-0.5
				c84.2,15.8,120.5,57.7,120.9,58.1l-0.6,0.5c-0.4-0.4-36.5-42.1-120.4-57.8c-83.8-15.7-140.3-4.7-167.5,0.5l-0.9,0.2
				c-26.3,5.1-75.7,21.5-95.9,43.7l-0.6-0.6C98.5,59.1,134.4,44.8,161.4,37.4"/>
			<path id="Fill-60" class="st0" d="M82.2,76.8l0.2,0.3c-2.4,1.3-21.6,17.6-26.5,41.5c-3.6,17.2,1,34.2,13.5,50.6
				c32.9,42.9,106.2,70.6,196,73.9c38.4,1.4,81.7-4.1,119-15.3c29.3-8.8,68.3-25,88.2-52.5c17.5-24.1,15-45.7,9.9-59.6
				c-5.6-15.1-15.4-24.5-15.5-24.6l0.6-0.4c0.1,0.1,9.6,9.8,15.2,24.9c3.3,8.9,4.5,18,3.5,26.9c-1.2,11.2-5.7,22.3-13.4,33
				c-8.1,11.3-20.3,21.6-36.2,30.8c-14.7,8.5-32.2,15.8-52.2,21.8c-37.3,11.2-80.7,16.7-119.1,15.3c-40.4-1.5-79.1-8.2-111.9-19.4
				c-38.2-13.1-66.6-31.4-84.4-54.7c-12.6-16.4-17.1-33.5-13.6-50.8C60.5,94.5,79.8,78.1,82.2,76.8"/>
			<path id="Fill-62" class="st0" d="M330,132.8c31.3-8.6,49.6-23.1,55.7-32.9c10.8-17.2,17.5-38.6-14.8-66.3
				C353.7,18.8,328.3,10.9,310,6.8c-19.9-4.4-35.9-5.4-36.1-5.4c-22.6,0.8-42.4,3.5-58.9,8.1c-36.9,10.2-51.1,27.8-56.5,40.8
				c-6.6,16-3.3,31.7,1.5,40.2c10.3,18.3,50.3,47.7,113.7,48.9C293.6,139.8,312.6,137.6,330,132.8 M214,8.9
				c16.5-4.5,36.3-7.5,58.9-8.4c0.4-0.4,16.7,0.8,36.6,5.2c18.4,4.1,43.8,11.7,61,26.5c15,12.9,23.4,26.4,24.3,39.1
				c0.8,11.6-4.3,21.4-8.8,28.7c-6.2,9.9-24.5,24.5-55.9,33.1c-17.4,4.8-36.4,7-56.4,6.7c-63.5-1.2-103.6-30.7-114-49.1
				c-4.9-8.6-8.2-24.4-1.5-40.5c3.6-8.6,9.5-16.4,17.9-23C185.8,19.6,198.1,13.3,214,8.9"/>
			<path id="Fill-64" class="st0" d="M3.4,233.5l0.9,0.3c-10.3,52.9,63.3,81.5,99,95.4c1.3,0.5,2.6,1,3.9,1.5
				c16.4,6.4,68,17.2,131,20.9c53.6,3.2,131.1,2.1,195.7-20.9c29.1-10.3,52.3-22.1,69-34.9c13.1-10,22.6-20.9,27.5-31.9
				c7-15.8,2.6-26.7,2.6-26.8l0.9-0.3c0,0.1,4.5,11.2-2.5,27.2c-4.9,11-15.1,22-28.2,32c-16.7,12.8-40,24.6-69.1,34.9
				c-64.7,23-142.2,24.1-195.8,20.9c-63.1-3.7-114.6-14.5-131.1-20.9c-1.2-0.5-2.5-1-3.9-1.5C67.4,315.6-7,286.7,3.4,233.5"/>
			<path id="Fill-66" class="st0" d="M28.4,389.6c15.2,27.8,53.8,41.5,82.2,48.3c13.4,3.2,134.8,30.9,272.3,6.1
				c67.3-12.1,96.9-27.4,110.9-38.4c15.1-11.9,14.2-21,14.2-21l1.4-0.3c0,0.1,0.9,9.3-14.3,21.3c-8.9,7-21.4,13.6-37.3,19.5
				c-19.9,7.4-45,13.9-74.8,19.3c-55.4,10-114.4,12.7-175.3,8.1c-51.7-3.9-87.4-11.9-97.1-14.2C82.1,431.4,42.3,418,27,390.1
				L28.4,389.6z"/>
			<path id="Fill-68" class="st0" d="M229.4,3.6c28.3-2.5,57.5,54,80.2,154.9c23.7,105.5,23,222.8,19.4,270
				c-3.6,47.2-14.4,86.4-28.1,102.2c-4.8,5.6-10.1,8.6-15.6,8.9c-7.4,0.5-12.6-4.2-12.6-4.2l0.2-0.7c0,0,5.2,5.1,12.4,4.6
				c5.4-0.3,10.5-3.3,15.3-8.8c6.9-8,13.2-22.1,18.2-40.9c4.7-17.8,8.1-38.9,9.8-61.1c3.6-47.3,4.3-164.5-19.4-270
				c-11.7-51.9-24.8-91.8-39.2-118.6C256.8,15.3,243,3.9,229.7,5L229.4,3.6z"/>
			<path id="Fill-70" class="st0" d="M153.3,30.1c15.6-4.3,32.9-5,51-2.8c25.8,3.2,52.9,13.4,78.3,29.3
				c27.8,17.5,53.2,41.3,75.6,70.9c64.5,85.3,75.2,178.3,75.9,226.3c0.1,8.7-0.1,17.1-0.6,24.9c-1.3,20.7-8.9,55.9-26.2,87.1
				l-0.4-0.4c17.2-31.1,25-66,26.3-86.7c0.5-7.8,0.7-16.1,0.6-24.8C433,306,422.3,213,357.9,127.8C314.9,71,258.9,34.5,204.2,27.6
				c-33.6-4.2-64.3,3.3-86.7,21.2l-0.6-0.8C127.3,39.7,139.8,33.8,153.3,30.1"/>
			<path id="Fill-72" class="st0" d="M315.6,34.7c36.9-10.2,72.9-5.4,107.7,15.4l0.2,0.9C386.5,29,348,24.3,308.8,37.1
				c-76.1,24.8-134.7,107.8-164.1,177.1c-23.7,55.8-33.5,118-27.6,175.2c5.9,57.3,26.7,101.4,58.7,124.2
				c26,18.6,50.9,23.6,67.2,24.5c17.7,1,29.3-2.4,29.5-2.4l0.1,0.3c-0.1,0-11.8,3.5-29.6,2.4c-16.4-0.9-41.3-6-67.4-24.6
				c-16.2-11.6-29.5-28.6-39.7-50.6c-9.8-21.2-16.2-46-19.1-73.8c-2.9-27.7-2-56.8,2.5-86.5c4.7-30.8,13.1-60.7,25.1-88.8
				c16.8-39.7,40.8-78.2,67.5-108.5c14.5-16.5,29.9-30.6,45.5-42c16.8-12.2,34-21.2,51.2-26.8C311,36,313.3,35.3,315.6,34.7"/>
			<path id="Fill-74" class="st0" d="M238.2,58c13.4-3.7,27.2-6.5,41.1-8.2c59.2-7.5,114.3,4,155.2,32.5
				c20.2,14,37.8,30.4,52.5,48.5c11.7,14.5,21.6,30.3,29.3,46.8c13.1,28.1,15.5,49,15.5,49.2l-0.3,0c0-0.2-2.4-21-15.5-49.1
				c-12.1-25.9-36.1-63.4-81.6-95.2c-89-62-226.4-34.7-298.9,29.6c-72.6,64.4-104.6,131.2-104,216.9
				c0.7,86.5,57.7,163.8,145.4,196.8l-0.1,0.3c-43.6-16.5-80.3-43.7-106.1-78.9c-25.5-34.8-39.2-75.7-39.5-118.3
				c-0.3-43.4,7.6-81.5,24.3-116.4c16.7-35,42.8-68,79.8-100.7C162.5,87.7,198.8,68.9,238.2,58"/>
			<path id="Fill-76" class="st0" d="M0.9,292.7l0.3,0c6.7,77.3,56.3,153.6,129.5,199c37.5,23.3,73.7,33.6,97.5,38.2
				c25.8,5,43,4.5,43.2,4.4l0,0.3c-0.2,0-17.4,0.5-43.2-4.5c-23.9-4.6-60.2-15-97.7-38.3c-35.8-22.2-66.7-52.2-89.4-86.8
				C18.1,370.2,4.2,331.3,0.9,292.7"/>
			<path id="Fill-78" class="st0" d="M461.7,81.1c88.9,91.9,99.9,235.8,26,342.1c-9.5,13.7-20.4,26.6-32.3,38.5l-0.6-0.6
				c11.9-11.8,22.7-24.7,32.2-38.4c73.6-106,62.7-249.5-25.9-341.1L461.7,81.1z"/>
			<path id="Fill-80" class="st0" d="M83.8,75.4l0.8,0.8c-25.5,24.3-45.5,53.9-60,85.8l-1.3-1.5C37.9,128.4,58.2,99.8,83.8,75.4"/>
			<path id="Fill-82" class="st0" d="M20.2,376.1c12.5,30.7,30.5,58.4,53.5,82.6c22.6,23.8,49,42.8,78.4,56.6
				c19.4,9.1,40,15.9,61.1,20l-0.1,0.3c-21.2-4.2-41.7-10.9-61.2-20c-29.4-13.8-55.8-32.9-78.5-56.7c-23-24.2-41.1-52-53.6-82.7
				L20.2,376.1z"/>
			<g id="Group-86" transform="translate(222.550515, 5.435318)">
				<g id="Clip-85">
				</g>
				<defs>
					<filter id="Adobe_OpacityMaskFilter" filterUnits="userSpaceOnUse" x="0.3" y="0" width="94.1" height="534.6">
						<feColorMatrix  type="matrix" values="1 0 0 0 0  0 1 0 0 0  0 0 1 0 0  0 0 0 1 0"/>
					</filter>
				</defs>
				<mask maskUnits="userSpaceOnUse" x="0.3" y="0" width="94.1" height="534.6" id="mask-2_1_">
					<g class="st1">
						<polygon id="path-1_1_" class="st2" points="0.3,0 94.4,0 94.4,534.6 0.3,534.6 						"/>
					</g>
				</mask>
				<path id="Fill-84" class="st3" d="M89.3,0.9c1.6-0.4,3.2-0.7,5-0.9L94.4,1C84.1,2.2,76.7,4.2,57.7,40.2
					C38.8,76,13,179.7,4.4,284.5C-6,411.2,7.3,480,16.2,509.7c4.1,13.8,10.3,21.9,17.6,24c8.5,2.4,15.6-4.7,15.7-4.8l0.4,0.8
					c-0.1,0.1-7.8,6.8-16.5,4.3c-7.5-2.1-13.4-10.3-17.5-24.2C7,480.1-6.3,411.2,4.1,284.5C12.7,179.6,38.5,75.9,57.4,40
					C72.7,11,80.3,3.4,89.3,0.9"/>
			</g>
		</g>
		<g id="Group-361" transform="translate(0.000000, 1.000000)">
			<path id="Fill-88" class="st0" d="M309.7,413.2c-0.3,2.3,1.3,4.4,3.6,4.7c2.3,0.3,4.4-1.3,4.7-3.6c0.3-2.3-1.3-4.4-3.6-4.7
				C312.1,409.2,310,410.8,309.7,413.2"/>
			<path id="Fill-90" class="st0" d="M191.1,227.2c-0.3,2.6-2.8,4.5-5.4,4.2c-2.6-0.3-4.5-2.8-4.2-5.4c0.3-2.6,2.8-4.5,5.4-4.2
				C189.6,222.2,191.4,224.6,191.1,227.2"/>
			<path id="Fill-92" class="st0" d="M39.9,293.2c-0.2,1.6-1.7,2.8-3.4,2.6c-1.6-0.2-2.8-1.7-2.6-3.4s1.7-2.8,3.4-2.6
				C39,290,40.1,291.5,39.9,293.2"/>
			<path id="Fill-94" class="st0" d="M401.5,65.9c-0.3,2.1-2.2,3.6-4.3,3.3c-2.1-0.3-3.6-2.2-3.3-4.3c0.3-2.1,2.2-3.6,4.3-3.3
				C400.3,61.9,401.8,63.8,401.5,65.9"/>
			<path id="Fill-96" class="st0" d="M234.5,4.1c-0.3,1.9-2,3.3-4,3.1c-1.9-0.3-3.3-2-3-4c0.3-1.9,2-3.3,4-3.1
				C233.4,0.4,234.7,2.1,234.5,4.1"/>
			<path id="Fill-98" class="st0" d="M487,110.7c-0.3,1.9-2,3.3-4,3.1s-3.3-2-3-4c0.3-1.9,2-3.3,4-3.1
				C485.9,107,487.2,108.8,487,110.7"/>
			<path id="Fill-100" class="st0" d="M182.1,520.6c-0.3,1.9-2,3.3-4,3.1c-1.9-0.3-3.3-2-3-4s2-3.3,4-3.1
				C181,516.8,182.3,518.6,182.1,520.6"/>
			<path id="Fill-102" class="st0" d="M428.8,43.7c-0.3,1.9-2,3.3-4,3.1c-1.9-0.3-3.3-2-3-4c0.3-1.9,2-3.3,4-3.1
				C427.7,39.9,429.1,41.7,428.8,43.7"/>
			<path id="Fill-104" class="st0" d="M190.2,455.2c-0.1,1-1.1,1.7-2.1,1.6c-1-0.1-1.7-1.1-1.6-2.1c0.1-1,1.1-1.7,2.1-1.6
				C189.6,453.3,190.3,454.2,190.2,455.2"/>
			<path id="Fill-106" class="st0" d="M22.6,194.9c-0.1,1-1.1,1.7-2.1,1.6c-1-0.1-1.7-1.1-1.6-2.1c0.1-1,1.1-1.7,2.1-1.6
				C22,192.9,22.8,193.8,22.6,194.9"/>
			<path id="Fill-108" class="st0" d="M355.2,512.9c-0.1,1-1.1,1.7-2.1,1.6c-1-0.1-1.7-1.1-1.6-2.1c0.1-1,1.1-1.7,2.1-1.6
				C354.7,510.9,355.4,511.8,355.2,512.9"/>
			<path id="Fill-110" class="st0" d="M215.3,535c-0.1,1-1,1.6-2,1.5c-1-0.1-1.6-1-1.5-2c0.1-1,1-1.6,2-1.5
				C214.7,533.1,215.4,534,215.3,535"/>
			<path id="Fill-112" class="st0" d="M180.9,409.1c-0.1,1-1,1.6-2,1.5c-1-0.1-1.6-1-1.5-2c0.1-1,1-1.6,2-1.5
				C180.3,407.3,181,408.2,180.9,409.1"/>
			<path id="Fill-114" class="st0" d="M110.1,399.2c-0.2,1.1-1.2,1.9-2.3,1.8c-1.1-0.2-1.9-1.2-1.8-2.3c0.1-1.1,1.2-1.9,2.3-1.8
				C109.4,397,110.2,398,110.1,399.2"/>
			<path id="Fill-116" class="st0" d="M143.7,428.1c-0.2,1.5-1.5,2.5-3,2.3c-1.5-0.2-2.5-1.5-2.3-3c0.2-1.5,1.5-2.5,3-2.3
				C142.8,425.3,143.9,426.7,143.7,428.1"/>
			<path id="Fill-118" class="st0" d="M69.2,442.9c-0.2,1.3-1.4,2.3-2.7,2.1c-1.3-0.2-2.3-1.4-2.1-2.7c0.2-1.3,1.4-2.3,2.7-2.1
				C68.5,440.3,69.4,441.5,69.2,442.9"/>
			<path id="Fill-120" class="st0" d="M346.5,292.3c-0.2,1.7-1.8,2.9-3.5,2.7c-1.7-0.2-2.9-1.8-2.7-3.5c0.2-1.7,1.8-2.9,3.5-2.7
				C345.6,289,346.8,290.6,346.5,292.3"/>
			<path id="Fill-122" class="st0" d="M517.5,369.7c-0.2,1.7-1.8,2.9-3.5,2.7c-1.7-0.2-2.9-1.8-2.7-3.5c0.2-1.7,1.8-2.9,3.5-2.7
				S517.7,368,517.5,369.7"/>
			<path id="Fill-124" class="st0" d="M300.6,458.5c-0.2,1.7-1.8,2.9-3.5,2.7c-1.7-0.2-2.9-1.8-2.7-3.5c0.2-1.7,1.8-2.9,3.5-2.7
				C299.6,455.2,300.8,456.8,300.6,458.5"/>
			<path id="Fill-126" class="st0" d="M328.9,529.8c-0.2,1.8-1.9,3.1-3.7,2.9c-1.8-0.2-3.1-1.9-2.9-3.7c0.2-1.8,1.9-3.1,3.7-2.9
				C327.9,526.3,329.2,527.9,328.9,529.8"/>
			<path id="Fill-128" class="st0" d="M495.4,107.4c-0.1,1-1.1,1.8-2.1,1.6c-1-0.1-1.8-1.1-1.6-2.1c0.1-1,1.1-1.8,2.1-1.6
				C494.8,105.4,495.5,106.4,495.4,107.4"/>
			<path id="Fill-130" class="st0" d="M31,384.9c-0.1,1-1.1,1.7-2.1,1.6c-1-0.1-1.7-1.1-1.6-2.1c0.1-1,1.1-1.7,2.1-1.6
				C30.5,382.9,31.2,383.8,31,384.9"/>
			<path id="Fill-132" class="st0" d="M75.6,338.9c-0.2,1.7-1.8,2.9-3.4,2.6c-1.7-0.2-2.9-1.8-2.6-3.4c0.2-1.7,1.8-2.9,3.4-2.6
				C74.7,335.6,75.8,337.2,75.6,338.9"/>
			<path id="Fill-134" class="st0" d="M307.9,247.7c-0.4,3-3.2,5.2-6.2,4.8c-3-0.4-5.1-3.2-4.8-6.2c0.4-3,3.2-5.2,6.2-4.8
				C306.2,241.9,308.3,244.6,307.9,247.7"/>
			<path id="Fill-136" class="st0" d="M280.4,173.9c-0.3,2.3-2.4,3.9-4.7,3.6c-2.3-0.3-3.9-2.4-3.6-4.7c0.3-2.3,2.4-3.9,4.7-3.6
				C279.1,169.5,280.7,171.6,280.4,173.9"/>
			<path id="Fill-138" class="st0" d="M227.9,186.3c-0.1,0.8-0.9,1.4-1.7,1.3s-1.4-0.9-1.3-1.7c0.1-0.8,0.9-1.4,1.7-1.3
				C227.4,184.7,228,185.5,227.9,186.3"/>
			<path id="Fill-140" class="st0" d="M10.4,339.6c-0.1,1-1.1,1.7-2.1,1.6c-1-0.1-1.7-1.1-1.6-2.1c0.1-1,1.1-1.7,2.1-1.6
				C9.8,337.7,10.5,338.6,10.4,339.6"/>
			<path id="Fill-142" class="st0" d="M297.5,303.4c-0.1,1.1-1.2,1.9-2.3,1.8c-1.1-0.1-1.9-1.2-1.8-2.3c0.1-1.1,1.2-1.9,2.3-1.8
				C296.8,301.3,297.6,302.3,297.5,303.4"/>
			<path id="Fill-144" class="st0" d="M418.3,43.9c-0.1,1.1-1.2,1.9-2.3,1.8c-1.1-0.1-1.9-1.2-1.8-2.3s1.2-1.9,2.3-1.8
				S418.5,42.8,418.3,43.9"/>
			<path id="Fill-146" class="st0" d="M73.9,98.6c-0.9-0.1-1.5-0.9-1.4-1.7c0.1-0.9,0.9-1.5,1.7-1.4c0.9,0.1,1.5,0.9,1.4,1.7
				C75.5,98,74.8,98.7,73.9,98.6"/>
			<path id="Fill-148" class="st0" d="M443.4,207.7c-1.3-0.2-2.2-1.3-2-2.6c0.2-1.3,1.3-2.2,2.6-2.1c1.3,0.2,2.2,1.3,2,2.6
				C445.8,206.9,444.7,207.8,443.4,207.7"/>
			<path id="Fill-150" class="st0" d="M415.1,343.9c-1.3-0.2-2.2-1.3-2-2.6c0.2-1.3,1.3-2.2,2.6-2.1c1.3,0.2,2.2,1.3,2,2.6
				C417.6,343.2,416.4,344.1,415.1,343.9"/>
			<path id="Fill-152" class="st0" d="M490.8,260.3c-1.3-0.2-2.2-1.3-2-2.6c0.2-1.3,1.3-2.2,2.6-2.1c1.3,0.2,2.2,1.3,2,2.6
				C493.2,259.5,492,260.4,490.8,260.3"/>
			<path id="Fill-154" class="st0" d="M509.3,395c-1.3-0.2-2.2-1.3-2-2.6c0.2-1.3,1.3-2.2,2.6-2.1c1.3,0.2,2.2,1.3,2,2.6
				C511.7,394.2,510.6,395.1,509.3,395"/>
			<path id="Fill-156" class="st0" d="M409.2,272.9c-1.3-0.2-2.2-1.3-2-2.6c0.2-1.3,1.3-2.2,2.6-2.1c1.3,0.2,2.2,1.3,2,2.6
				C411.7,272.2,410.5,273.1,409.2,272.9"/>
			<path id="Fill-158" class="st0" d="M296.9,175c-1.3-0.2-2.2-1.3-2-2.6c0.2-1.3,1.3-2.2,2.6-2.1s2.2,1.3,2,2.6
				C299.3,174.3,298.2,175.2,296.9,175"/>
			<path id="Fill-160" class="st0" d="M212.3,413.2c-1.3-0.2-2.2-1.3-2-2.6c0.2-1.3,1.3-2.2,2.6-2.1c1.3,0.2,2.2,1.3,2,2.6
				C214.8,412.4,213.6,413.3,212.3,413.2"/>
			<path id="Fill-162" class="st0" d="M227.7,203.1c-1.3-0.2-2.2-1.3-2-2.6c0.2-1.3,1.3-2.2,2.6-2.1c1.3,0.2,2.2,1.3,2,2.6
				C230.1,202.4,229,203.3,227.7,203.1"/>
			<path id="Fill-164" class="st0" d="M77,271.7c-1.3-0.2-2.2-1.3-2-2.6c0.2-1.3,1.3-2.2,2.6-2.1c1.3,0.2,2.2,1.3,2,2.6
				C79.5,271,78.3,271.9,77,271.7"/>
			<path id="Fill-166" class="st0" d="M462.4,81.9c-0.9-0.1-1.5-0.9-1.4-1.7c0.1-0.9,0.9-1.5,1.7-1.4c0.9,0.1,1.5,0.9,1.4,1.7
				C464.1,81.4,463.3,82,462.4,81.9"/>
			<path id="Fill-168" class="st0" d="M119.4,208.8c-1.3-0.2-2.2-1.3-2-2.6c0.2-1.3,1.3-2.2,2.6-2.1c1.3,0.2,2.2,1.3,2,2.6
				C121.8,208,120.7,208.9,119.4,208.8"/>
			<path id="Fill-170" class="st0" d="M151.5,509.1c-1.3-0.2-2.2-1.3-2-2.6c0.2-1.3,1.3-2.2,2.6-2.1c1.3,0.2,2.2,1.3,2,2.6
				C154,508.4,152.8,509.3,151.5,509.1"/>
			<path id="Fill-172" class="st0" d="M277.3,53.2c-1.3-0.2-2.2-1.3-2-2.6c0.2-1.3,1.3-2.2,2.6-2.1c1.3,0.2,2.2,1.3,2,2.6
				C279.8,52.4,278.6,53.3,277.3,53.2"/>
			<path id="Fill-174" class="st0" d="M121.9,122.4c-1.3-0.2-2.2-1.3-2-2.6c0.2-1.3,1.3-2.2,2.6-2.1c1.3,0.2,2.2,1.3,2,2.6
				C124.3,121.6,123.2,122.5,121.9,122.4"/>
			<path id="Fill-176" class="st0" d="M114.3,353.5c-1.8-0.2-3.2-1.9-2.9-3.7c0.2-1.8,1.9-3.2,3.7-2.9c1.8,0.2,3.2,1.9,2.9,3.7
				C117.8,352.4,116.1,353.7,114.3,353.5"/>
			<path id="Fill-178" class="st0" d="M359.5,492.7c-1.8-0.2-3.1-1.8-2.9-3.5c0.2-1.8,1.8-3.1,3.5-2.9c1.8,0.2,3.1,1.8,2.9,3.5
				C362.9,491.6,361.3,492.9,359.5,492.7"/>
			<path id="Fill-180" class="st0" d="M235.4,534.9c-1.8-0.2-3.1-1.8-2.9-3.5c0.2-1.8,1.8-3.1,3.5-2.9c1.8,0.2,3.1,1.8,2.9,3.5
				S237.2,535.1,235.4,534.9"/>
			<path id="Fill-182" class="st0" d="M335,13.3c-2.4-0.2-4.2-2.4-3.9-4.8s2.4-4.2,4.8-3.9c2.4,0.2,4.2,2.4,3.9,4.8
				C339.6,11.8,337.4,13.6,335,13.3"/>
			<path id="Fill-184" class="st0" d="M502.2,174c-1.8-0.2-3.1-1.8-2.9-3.5c0.2-1.8,1.8-3.1,3.5-2.9c1.8,0.2,3.1,1.8,2.9,3.5
				C505.5,172.9,503.9,174.2,502.2,174"/>
			<path id="Fill-186" class="st0" d="M65.2,95.4c-2.5-0.3-4.2-2.6-3.9-5c0.3-2.5,2.5-4.3,5-4c2.5,0.3,4.2,2.6,3.9,5
				C69.9,93.9,67.7,95.7,65.2,95.4"/>
			<path id="Fill-188" class="st0" d="M531.2,214.8c-1.6-0.2-2.8-1.7-2.6-3.4c0.2-1.7,1.7-2.8,3.3-2.6c1.7,0.2,2.8,1.7,2.6,3.4
				C534.3,213.9,532.8,215,531.2,214.8"/>
			<path id="Fill-190" class="st0" d="M535.8,230.1c-0.9-0.1-1.5-0.9-1.4-1.8s0.9-1.5,1.8-1.4c0.9,0.1,1.5,0.9,1.4,1.8
				C537.5,229.6,536.7,230.2,535.8,230.1"/>
			<path id="Fill-192" class="st0" d="M186.1,40.9c-0.9-0.1-1.5-0.9-1.4-1.8c0.1-0.9,0.9-1.5,1.8-1.4c0.9,0.1,1.5,0.9,1.4,1.8
				S187,41,186.1,40.9"/>
			<path id="Fill-194" class="st0" d="M369.6,377.8c-0.9-0.1-1.5-0.9-1.4-1.8s0.9-1.5,1.8-1.4c0.9,0.1,1.5,0.9,1.4,1.8
				C371.3,377.3,370.5,377.9,369.6,377.8"/>
			<path id="Fill-196" class="st0" d="M397,319c-0.9-0.1-1.5-0.9-1.4-1.8s0.9-1.5,1.8-1.4c0.9,0.1,1.5,0.9,1.4,1.8
				S397.8,319.1,397,319"/>
			<path id="Fill-198" class="st0" d="M390.5,24.5c-0.9-0.1-1.5-0.9-1.4-1.8c0.1-0.9,0.9-1.5,1.8-1.4c0.9,0.1,1.5,0.9,1.4,1.8
				C392.2,24,391.4,24.6,390.5,24.5"/>
			<path id="Fill-200" class="st0" d="M414.7,235.9c-0.9-0.1-1.5-0.9-1.4-1.8s0.9-1.5,1.8-1.4s1.5,0.9,1.4,1.8
				C416.3,235.3,415.6,236,414.7,235.9"/>
			<path id="Fill-202" class="st0" d="M391.8,153c-0.9-0.1-1.5-0.9-1.4-1.8c0.1-0.9,0.9-1.5,1.8-1.4c0.9,0.1,1.5,0.9,1.4,1.8
				C393.4,152.5,392.7,153.1,391.8,153"/>
			<path id="Fill-204" class="st0" d="M202.1,477.8c-2.8-0.3-4.8-2.9-4.5-5.7c0.3-2.8,2.9-4.8,5.7-4.5c2.8,0.3,4.8,2.9,4.5,5.7
				C207.5,476.1,204.9,478.1,202.1,477.8"/>
			<path id="Fill-206" class="st0" d="M466.4,377.3c-1.6-0.2-2.7-1.6-2.5-3.2c0.2-1.6,1.6-2.7,3.2-2.5c1.6,0.2,2.7,1.6,2.5,3.2
				C469.4,376.4,468,377.5,466.4,377.3"/>
			<path id="Fill-208" class="st0" d="M191.5,525.6c-1.6-0.2-2.7-1.6-2.5-3.2c0.2-1.6,1.6-2.7,3.2-2.5c1.6,0.2,2.7,1.6,2.5,3.2
				C194.5,524.6,193.1,525.8,191.5,525.6"/>
			<path id="Fill-210" class="st0" d="M272.3,536.5c-1.6-0.2-2.8-1.7-2.6-3.3c0.2-1.6,1.7-2.8,3.3-2.6c1.6,0.2,2.8,1.7,2.6,3.3
				C275.4,535.6,273.9,536.7,272.3,536.5"/>
			<path id="Fill-212" class="st0" d="M455.8,463.3c-1.6-0.2-2.8-1.7-2.6-3.3c0.2-1.6,1.7-2.8,3.3-2.6c1.6,0.2,2.8,1.7,2.6,3.3
				C458.9,462.3,457.4,463.5,455.8,463.3"/>
			<path id="Fill-214" class="st0" d="M118.5,51.2c-1.6-0.2-2.8-1.7-2.6-3.3c0.2-1.6,1.7-2.8,3.3-2.6c1.6,0.2,2.8,1.7,2.6,3.3
				C121.7,50.2,120.2,51.4,118.5,51.2"/>
			<path id="Fill-216" class="st0" d="M156.6,352.7c-1.6-0.2-2.8-1.7-2.6-3.3c0.2-1.6,1.7-2.8,3.3-2.6c1.6,0.2,2.8,1.7,2.6,3.3
				C159.7,351.7,158.2,352.9,156.6,352.7"/>
			<path id="Fill-218" class="st0" d="M139.6,247c-1.6-0.2-2.8-1.7-2.6-3.3c0.2-1.6,1.7-2.8,3.3-2.6s2.8,1.7,2.6,3.3
				C142.8,246,141.3,247.2,139.6,247"/>
			<path id="Fill-220" class="st0" d="M188.4,312.8c-1.6-0.2-2.8-1.7-2.6-3.3c0.2-1.6,1.7-2.8,3.3-2.6c1.6,0.2,2.8,1.7,2.6,3.3
				S190,313,188.4,312.8"/>
			<path id="Fill-222" class="st0" d="M25.5,162.3c-1.6-0.2-2.8-1.7-2.6-3.3c0.2-1.6,1.7-2.8,3.3-2.6c1.6,0.2,2.8,1.7,2.6,3.3
				C28.7,161.3,27.2,162.5,25.5,162.3"/>
			<path id="Fill-224" class="st0" d="M511.9,167.9c-1.1-0.1-1.8-1.1-1.7-2.2c0.1-1.1,1.1-1.8,2.2-1.7c1.1,0.1,1.8,1.1,1.7,2.2
				C514,167.3,513,168,511.9,167.9"/>
			<path id="Fill-226" class="st0" d="M232.8,430.1c-1.1-0.1-1.8-1.1-1.7-2.2c0.1-1.1,1.1-1.8,2.2-1.7c1.1,0.1,1.8,1.1,1.7,2.2
				C234.8,429.4,233.9,430.2,232.8,430.1"/>
			<path id="Fill-228" class="st0" d="M515.7,186.7c-1.2-0.1-2.1-1.2-1.9-2.4c0.1-1.2,1.2-2.1,2.4-1.9c1.2,0.1,2.1,1.2,1.9,2.4
				C518,186,516.9,186.8,515.7,186.7"/>
			<path id="Fill-230" class="st0" d="M138.5,177.8c-1.9-0.2-3.3-2-3-3.9c0.2-1.9,2-3.3,3.9-3c1.9,0.2,3.3,2,3,3.9
				C142.1,176.7,140.4,178.1,138.5,177.8"/>
			<path id="Fill-232" class="st0" d="M87.9,390.8c-1.9-0.2-3.3-2-3-3.9c0.2-1.9,2-3.3,3.9-3c1.9,0.2,3.3,2,3,3.9
				C91.5,389.7,89.8,391,87.9,390.8"/>
			<path id="Fill-234" class="st0" d="M126,324.8c-1.9-0.2-3.3-2-3-3.9s2-3.3,3.9-3c1.9,0.2,3.3,2,3,3.9
				C129.7,323.7,127.9,325.1,126,324.8"/>
			<path id="Fill-236" class="st0" d="M318.4,6.7c-1.4-0.2-2.4-1.5-2.2-2.9c0.2-1.4,1.5-2.4,2.9-2.3c1.4,0.2,2.4,1.5,2.2,2.9
				C321.1,5.8,319.8,6.8,318.4,6.7"/>
			<path id="Fill-238" class="st0" d="M238.4,30.8c-1.4-0.2-2.4-1.5-2.2-2.9c0.2-1.4,1.5-2.4,2.9-2.3c1.4,0.2,2.4,1.5,2.2,2.9
				C241.1,30,239.8,31,238.4,30.8"/>
			<path id="Fill-240" class="st0" d="M396.1,357.6c-2.7-0.3-4.6-2.8-4.3-5.5c0.3-2.7,2.8-4.6,5.5-4.3c2.7,0.3,4.6,2.8,4.3,5.5
				C401.3,356,398.8,358,396.1,357.6"/>
			<path id="Fill-242" class="st0" d="M268.7,312.6c-3.5-0.4-6-3.6-5.5-7.1c0.4-3.5,3.6-6,7.1-5.6c3.5,0.4,6,3.6,5.5,7.1
				C275.4,310.5,272.2,313,268.7,312.6"/>
			<path id="Fill-244" class="st0" d="M98.9,154.5c-2.7-0.3-4.6-2.8-4.3-5.5c0.3-2.7,2.8-4.6,5.5-4.3c2.7,0.3,4.6,2.8,4.3,5.5
				C104,152.9,101.6,154.8,98.9,154.5"/>
			<path id="Fill-246" class="st0" d="M29.4,397.9c-2.5-0.3-4.3-2.6-4-5.1c0.3-2.5,2.6-4.3,5.1-4c2.5,0.3,4.3,2.6,4,5.1
				C34.2,396.4,31.9,398.2,29.4,397.9"/>
			<path id="Fill-248" class="st0" d="M255,478c-0.8-0.1-1.4-0.8-1.3-1.7c0.1-0.8,0.8-1.4,1.7-1.3c0.8,0.1,1.4,0.8,1.3,1.7
				C256.6,477.6,255.8,478.1,255,478"/>
			<path id="Fill-250" class="st0" d="M332.7,92.6c-0.8-0.1-1.4-0.8-1.3-1.7c0.1-0.8,0.8-1.4,1.7-1.3c0.8,0.1,1.4,0.8,1.3,1.7
				C334.3,92.1,333.5,92.7,332.7,92.6"/>
			<path id="Fill-252" class="st0" d="M282.1,6.6c-0.8-0.1-1.4-0.8-1.3-1.7c0.1-0.8,0.8-1.4,1.7-1.3c0.8,0.1,1.4,0.8,1.3,1.7
				C283.7,6.1,283,6.7,282.1,6.6"/>
			<path id="Fill-254" class="st0" d="M376.1,348.4c-0.8-0.1-1.4-0.8-1.3-1.7c0.1-0.8,0.8-1.4,1.7-1.3c0.8,0.1,1.4,0.8,1.3,1.7
				C377.7,348,376.9,348.5,376.1,348.4"/>
			<path id="Fill-256" class="st0" d="M292.5,19.2c-0.8-0.1-1.4-0.8-1.3-1.7c0.1-0.8,0.8-1.4,1.7-1.3c0.8,0.1,1.4,0.8,1.3,1.7
				C294,18.7,293.3,19.3,292.5,19.2"/>
			<path id="Fill-258" class="st0" d="M501.6,409.9c-0.8-0.1-1.4-0.8-1.3-1.7c0.1-0.8,0.8-1.4,1.7-1.3c0.8,0.1,1.4,0.8,1.3,1.7
				C503.1,409.4,502.4,410,501.6,409.9"/>
			<path id="Fill-260" class="st0" d="M273.5,353.8c-0.8-0.1-1.4-0.8-1.3-1.7c0.1-0.8,0.8-1.4,1.7-1.3c0.8,0.1,1.4,0.8,1.3,1.7
				C275,353.3,274.3,353.9,273.5,353.8"/>
			<path id="Fill-262" class="st0" d="M524.9,139.2c-0.8-0.1-1.4-0.8-1.3-1.7c0.1-0.8,0.8-1.4,1.7-1.3c0.8,0.1,1.4,0.8,1.3,1.7
				C526.5,138.7,525.7,139.3,524.9,139.2"/>
			<path id="Fill-264" class="st0" d="M36.4,317.8c-0.8-0.1-1.4-0.8-1.3-1.7c0.1-0.8,0.8-1.4,1.7-1.3c0.8,0.1,1.4,0.8,1.3,1.7
				C38,317.3,37.2,317.9,36.4,317.8"/>
			<path id="Fill-266" class="st0" d="M497.6,315.7c-0.8-0.1-1.4-0.8-1.3-1.7c0.1-0.8,0.8-1.4,1.7-1.3c0.8,0.1,1.4,0.8,1.3,1.7
				C499.1,315.2,498.4,315.8,497.6,315.7"/>
			<path id="Fill-268" class="st0" d="M478,214.6c-0.8-0.1-1.4-0.8-1.3-1.7c0.1-0.8,0.8-1.4,1.7-1.3c0.8,0.1,1.4,0.8,1.3,1.7
				C479.6,214.1,478.8,214.7,478,214.6"/>
			<path id="Fill-270" class="st0" d="M231.5,259.1c-0.8-0.1-1.4-0.8-1.3-1.7c0.1-0.8,0.8-1.4,1.7-1.3c0.8,0.1,1.4,0.8,1.3,1.7
				C233.1,258.7,232.4,259.2,231.5,259.1"/>
			<path id="Fill-272" class="st0" d="M475.5,253.4c-2.4-0.3-4-2.4-3.7-4.8s2.4-4,4.8-3.7c2.4,0.3,4,2.4,3.7,4.8
				C480,252,477.8,253.7,475.5,253.4"/>
			<path id="Fill-274" class="st0" d="M4.9,222.7c-2.4-0.3-4-2.4-3.7-4.8c0.3-2.4,2.4-4,4.8-3.7c2.4,0.3,4,2.4,3.7,4.8
				C9.4,221.3,7.3,222.9,4.9,222.7"/>
			<path id="Fill-276" class="st0" d="M189.8,267.7c-2.4-0.3-4-2.4-3.7-4.8c0.3-2.4,2.4-4,4.8-3.8s4,2.4,3.7,4.8
				C194.3,266.3,192.2,268,189.8,267.7"/>
			<path id="Fill-278" class="st0" d="M313.4,339.5c-2.4-0.3-4-2.4-3.7-4.8c0.3-2.4,2.4-4,4.8-3.7c2.4,0.3,4,2.4,3.7,4.8
				C317.9,338.1,315.8,339.8,313.4,339.5"/>
			<path id="Fill-280" class="st0" d="M534.6,240.3c-2.4-0.3-4-2.4-3.7-4.8c0.3-2.4,2.4-4,4.8-3.7c2.4,0.3,4,2.4,3.7,4.8
				C539.1,238.9,537,240.5,534.6,240.3"/>
			<path id="Fill-282" class="st0" d="M364.9,421.5c-2.4-0.3-4-2.4-3.7-4.8c0.3-2.4,2.4-4,4.8-3.7c2.4,0.3,4,2.4,3.7,4.8
				C369.4,420.1,367.2,421.8,364.9,421.5"/>
			<path id="Fill-284" class="st0" d="M517.9,211.3c-2.4-0.3-4-2.4-3.7-4.8c0.3-2.4,2.4-4,4.8-3.7c2.4,0.3,4,2.4,3.7,4.8
				C522.4,209.9,520.3,211.6,517.9,211.3"/>
			<g id="Group-288" transform="translate(0.000000, 261.898969)">
				<g id="Clip-287">
				</g>
				<defs>
					<filter id="Adobe_OpacityMaskFilter_1_" filterUnits="userSpaceOnUse" x="0" y="0.6" width="6" height="6">
						<feColorMatrix  type="matrix" values="1 0 0 0 0  0 1 0 0 0  0 0 1 0 0  0 0 0 1 0"/>
					</filter>
				</defs>
				<mask maskUnits="userSpaceOnUse" x="0" y="0.6" width="6" height="6" id="mask-4_1_">
					<g class="st4">
						<polygon id="path-3_1_" class="st2" points="0,0.6 6,0.6 6,6.5 0,6.5 						"/>
					</g>
				</mask>
				<path id="Fill-286" class="st5" d="M2.6,6.5C1,6.3-0.2,4.8,0,3.2c0.2-1.6,1.7-2.8,3.3-2.6s2.8,1.7,2.6,3.3
					C5.7,5.5,4.3,6.7,2.6,6.5"/>
			</g>
			<path id="Fill-289" class="st0" d="M341.4,332.9c-2.4-0.3-4-2.4-3.7-4.8c0.3-2.4,2.4-4,4.8-3.7c2.4,0.3,4,2.4,3.7,4.8
				C345.9,331.5,343.7,333.2,341.4,332.9"/>
			<path id="Fill-291" class="st0" d="M348.4,143.1c-1.2-0.1-2-1.2-1.9-2.4c0.1-1.2,1.2-2,2.4-1.9c1.2,0.1,2,1.2,1.9,2.4
				C350.7,142.4,349.6,143.2,348.4,143.1"/>
			<path id="Fill-293" class="st0" d="M257.2,115.7c-1.2-0.1-2-1.2-1.9-2.4c0.1-1.2,1.2-2,2.4-1.9c1.2,0.1,2,1.2,1.9,2.4
				C259.5,115,258.4,115.9,257.2,115.7"/>
			<path id="Fill-295" class="st0" d="M178.2,33.6c-1.2-0.1-2-1.2-1.9-2.4c0.1-1.2,1.2-2,2.4-1.9c1.2,0.1,2,1.2,1.9,2.4
				C180.4,32.9,179.4,33.8,178.2,33.6"/>
			<path id="Fill-297" class="st0" d="M90.1,72.7c-1.2-0.1-2-1.2-1.9-2.4c0.1-1.2,1.2-2,2.4-1.9c1.2,0.1,2,1.2,1.9,2.4
				C92.4,72,91.3,72.9,90.1,72.7"/>
			<path id="Fill-299" class="st0" d="M2.3,278.6c-1.2-0.1-2-1.2-1.9-2.4c0.1-1.2,1.2-2,2.4-1.9c1.2,0.1,2,1.2,1.9,2.4
				C4.6,277.9,3.5,278.8,2.3,278.6"/>
			<path id="Fill-301" class="st0" d="M349.8,42.6c-1-0.1-1.7-1-1.6-2c0.1-1,1-1.7,2-1.6c1,0.1,1.7,1,1.6,2
				C351.7,42,350.8,42.8,349.8,42.6"/>
			<path id="Fill-303" class="st0" d="M542.2,313.5c-1-0.1-1.7-1-1.6-2s1-1.7,2-1.6c1,0.1,1.7,1,1.6,2
				C544.1,312.9,543.2,313.6,542.2,313.5"/>
			<path id="Fill-305" class="st0" d="M357.3,255.2c-1-0.1-1.7-1-1.6-2c0.1-1,1-1.7,2-1.6c1,0.1,1.7,1,1.6,2
				C359.2,254.6,358.3,255.3,357.3,255.2"/>
			<path id="Fill-307" class="st0" d="M120,277.6c-0.8-0.1-1.4-0.8-1.3-1.6s0.8-1.4,1.6-1.3c0.8,0.1,1.4,0.8,1.3,1.6
				C121.6,277.2,120.8,277.7,120,277.6"/>
			<path id="Fill-309" class="st0" d="M90.1,283.3c-1.2-0.1-2.1-1.2-1.9-2.5c0.1-1.2,1.2-2.1,2.5-1.9c1.2,0.1,2.1,1.2,1.9,2.5
				C92.4,282.5,91.3,283.4,90.1,283.3"/>
			<path id="Fill-311" class="st0" d="M20.8,377.4c1.1,0.1,2.1-0.7,2.3-1.8c0.1-1.1-0.7-2.1-1.8-2.3c-1.1-0.1-2.1,0.7-2.3,1.8
				C18.9,376.3,19.7,377.3,20.8,377.4"/>
			<path id="Fill-313" class="st0" d="M532.3,315.7c1.1,0.1,2.1-0.7,2.3-1.8c0.1-1.1-0.7-2.1-1.8-2.3c-1.1-0.1-2.1,0.7-2.3,1.8
				C530.4,314.6,531.2,315.6,532.3,315.7"/>
			<path id="Fill-315" class="st0" d="M106.4,68.9c-0.7-0.1-1.2-0.7-1.1-1.5c0.1-0.7,0.7-1.2,1.5-1.2c0.7,0.1,1.2,0.7,1.2,1.5
				C107.7,68.5,107.1,69,106.4,68.9"/>
			<path id="Fill-317" class="st0" d="M357.1,15.3c-0.7-0.1-1.2-0.7-1.1-1.5c0.1-0.7,0.7-1.2,1.5-1.2c0.7,0.1,1.2,0.7,1.1,1.5
				C358.5,14.9,357.8,15.4,357.1,15.3"/>
			<path id="Fill-319" class="st0" d="M231.6,115.7c-0.7-0.1-1.2-0.7-1.1-1.5c0.1-0.7,0.7-1.2,1.5-1.2c0.7,0.1,1.2,0.7,1.1,1.5
				C232.9,115.3,232.3,115.8,231.6,115.7"/>
			<path id="Fill-321" class="st0" d="M242.6,21.8c-0.7-0.1-1.2-0.7-1.1-1.5c0.1-0.7,0.7-1.2,1.5-1.2c0.7,0.1,1.2,0.7,1.1,1.5
				C244,21.4,243.4,21.9,242.6,21.8"/>
			<path id="Fill-323" class="st0" d="M3,238c-0.7-0.1-1.2-0.7-1.2-1.5c0.1-0.7,0.7-1.2,1.5-1.2c0.7,0.1,1.2,0.7,1.2,1.5
				C4.4,237.6,3.7,238.1,3,238"/>
			<path id="Fill-325" class="st0" d="M359.1,14c-0.7-0.1-1.2-0.7-1.2-1.5c0.1-0.7,0.7-1.2,1.5-1.2c0.7,0.1,1.2,0.7,1.1,1.5
				S359.9,14.1,359.1,14"/>
			<path id="Fill-327" class="st0" d="M407.8,467.2c-0.7-0.1-1.2-0.7-1.1-1.5c0.1-0.7,0.7-1.2,1.5-1.2c0.7,0.1,1.2,0.7,1.1,1.5
				C409.2,466.7,408.5,467.3,407.8,467.2"/>
			<path id="Fill-329" class="st0" d="M444.7,473.7c-0.7-0.1-1.2-0.7-1.1-1.5c0.1-0.7,0.7-1.2,1.5-1.2c0.7,0.1,1.2,0.7,1.1,1.5
				C446,473.3,445.4,473.8,444.7,473.7"/>
			<path id="Fill-331" class="st0" d="M381.1,384.5c-0.7-0.1-1.2-0.7-1.1-1.5c0.1-0.7,0.7-1.2,1.5-1.2c0.7,0.1,1.2,0.7,1.2,1.5
				C382.5,384.1,381.9,384.6,381.1,384.5"/>
			<path id="Fill-333" class="st0" d="M481.7,90.7c-0.7-0.1-1.2-0.7-1.1-1.5c0.1-0.7,0.7-1.2,1.5-1.2c0.7,0.1,1.2,0.7,1.2,1.5
				C483.1,90.3,482.5,90.8,481.7,90.7"/>
			<path id="Fill-335" class="st0" d="M541.7,290.2c-0.7-0.1-1.2-0.7-1.1-1.5c0.1-0.7,0.7-1.2,1.5-1.2c0.7,0.1,1.2,0.7,1.2,1.5
				C543.1,289.8,542.5,290.3,541.7,290.2"/>
			<path id="Fill-337" class="st0" d="M532.8,194.8c-0.7-0.1-1.2-0.7-1.1-1.5c0.1-0.7,0.7-1.2,1.5-1.2c0.7,0.1,1.2,0.7,1.1,1.5
				C534.2,194.3,533.5,194.9,532.8,194.8"/>
			<path id="Fill-339" class="st0" d="M201.1,90.7c-0.7-0.1-1.2-0.7-1.1-1.5c0.1-0.7,0.7-1.2,1.5-1.2c0.7,0.1,1.2,0.7,1.2,1.5
				C202.5,90.3,201.8,90.8,201.1,90.7"/>
			<path id="Fill-341" class="st0" d="M100.3,503.2c-0.7-0.1-1.2-0.7-1.1-1.5c0.1-0.7,0.7-1.2,1.5-1.2c0.7,0.1,1.2,0.7,1.2,1.5
				C101.7,502.8,101,503.3,100.3,503.2"/>
			<path id="Fill-343" class="st0" d="M519.3,159.5c-0.7-0.1-1.2-0.7-1.2-1.5c0.1-0.7,0.7-1.2,1.5-1.2c0.7,0.1,1.2,0.7,1.1,1.5
				C520.7,159.1,520,159.6,519.3,159.5"/>
			<path id="Fill-345" class="st0" d="M155.7,276c-0.7-0.1-1.2-0.7-1.1-1.5c0.1-0.7,0.7-1.2,1.5-1.2c0.7,0.1,1.2,0.7,1.2,1.5
				C157.1,275.6,156.4,276.1,155.7,276"/>
			<path id="Fill-347" class="st0" d="M60.1,98.7c-0.7-0.1-1.2-0.7-1.2-1.5c0.1-0.7,0.7-1.2,1.5-1.2c0.7,0.1,1.2,0.7,1.1,1.5
				C61.5,98.3,60.8,98.8,60.1,98.7"/>
			<path id="Fill-349" class="st0" d="M234.7,500.1c-0.7-0.1-1.2-0.7-1.1-1.5c0.1-0.7,0.7-1.2,1.5-1.2c0.7,0.1,1.2,0.7,1.2,1.5
				C236.1,499.6,235.4,500.1,234.7,500.1"/>
			<path id="Fill-351" class="st0" d="M2.1,293.1c-0.7-0.1-1.2-0.7-1.1-1.5c0.1-0.7,0.7-1.2,1.5-1.2c0.7,0.1,1.2,0.7,1.2,1.5
				C3.5,292.7,2.9,293.2,2.1,293.1"/>
			<path id="Fill-353" class="st0" d="M165.9,64.7c-0.7-0.1-1.2-0.7-1.2-1.5c0.1-0.7,0.7-1.2,1.5-1.2c0.7,0.1,1.2,0.7,1.2,1.5
				C167.3,64.3,166.6,64.8,165.9,64.7"/>
			<path id="Fill-355" class="st0" d="M360.1,72.6c-0.7-0.1-1.2-0.7-1.1-1.5c0.1-0.7,0.7-1.2,1.5-1.2c0.7,0.1,1.2,0.7,1.1,1.5
				C361.5,72.2,360.8,72.7,360.1,72.6"/>
			<path id="Fill-357" class="st0" d="M369.3,265.4c-0.7-0.1-1.2-0.7-1.2-1.5c0.1-0.7,0.7-1.2,1.5-1.2c0.7,0.1,1.2,0.7,1.1,1.5
				C370.7,265,370,265.5,369.3,265.4"/>
			<path id="Fill-359" class="st0" d="M191.5,3.5c-0.7-0.1-1.2-0.7-1.2-1.5c0.1-0.7,0.7-1.2,1.5-1.2c0.7,0.1,1.2,0.7,1.2,1.5
				C192.9,3,192.2,3.6,191.5,3.5"/>
		</g>
	</g>
</g>
</svg>
