<?xml version="1.0" encoding="UTF-8"?>
<svg width="545px" height="540px" viewBox="0 0 545 540" version="1.1" xmlns="http://www.w3.org/2000/svg" xmlns:xlink="http://www.w3.org/1999/xlink">
    <title>world-network</title>
    <defs>
        <polygon id="path-1" points="0.286550566 0.00315811088 94.4122398 0.00315811088 94.4122398 534.564682 0.286550566 534.564682"></polygon>
        <polygon id="path-3" points="0 0.563583655 5.95959346 0.563583655 5.95959346 6.53180439 0 6.53180439"></polygon>
    </defs>
    <g id="home" stroke="none" stroke-width="1" fill="none" fill-rule="evenodd">
        <g id="world-network">
            <g id="Group-43" transform="translate(2.000000, 0.000000)" fill="#1CA296">
                <path d="M74.5859406,454.694654 L75.396332,453.65061 C75.511627,453.738261 87.2318156,462.394612 119.090951,454.542651 C148.562148,447.279837 201.723158,424.017974 287.617994,354.44097 C295.009074,348.451866 302.617441,342.142116 310.23135,335.688131 L311.944148,337.397877 C304.323586,343.859629 296.707459,350.176036 289.30751,356.169577 C202.989186,426.090527 148.699615,448.681141 119.07543,455.908451 C86.7407029,463.798135 75.0670758,455.070775 74.5859406,454.694654" id="Fill-1"></path>
                <path d="M25.2459645,381.888881 C25.05861,381.57822 20.7827145,374.058001 31.5350895,355.605838 C41.3662125,338.735828 66.2899051,309.03884 129.209979,263.357226 C172.159614,232.174613 223.662149,200.590359 274.22902,174.422704 L275.470659,175.86395 C224.938155,202.012743 173.473313,233.573698 130.558044,264.731902 C10.5646879,351.850167 25.7814215,381.167704 25.95769,381.460613 L25.2459645,381.888881 Z" id="Fill-3"></path>
                <path d="M0.54266291,279.181196 C0.514947746,279.003676 -2.08916906,261.038585 6.8473084,234.139767 C15.0787121,209.356773 35.0713227,171.655822 83.571751,132.787674 C123.354097,100.904963 181.139106,75.7491756 242.112466,63.770969 C263.276874,59.613657 284.459019,57.1194917 305.073558,56.3594814 C337.556839,55.1623264 368.11447,58.2412004 395.899476,65.509562 L395.620108,66.583562 C367.93931,59.3418285 336.787466,57.1350248 304.412829,58.3277417 C283.857046,59.0855331 262.732548,61.5730413 241.624679,65.7192583 C180.822044,77.6652893 123.911726,101.879107 84.2646301,133.653087 C36.0125297,172.324853 16.1174764,209.790589 7.92376537,234.412705 C-0.949521516,261.079636 1.61135963,278.83725 1.63796619,279.013661 L0.54266291,279.181196 Z" id="Fill-5"></path>
                <path d="M176.236182,520.297303 L176.72286,519.299859 C176.957885,519.415247 200.750799,530.773241 239.319221,526.846706 C274.933207,523.221956 330.787022,505.451028 394.631674,441.379383 C460.349871,375.42602 485.332319,303.209505 494.717783,254.24265 C505.615385,197.383892 500.75858,142.539993 482.044192,111.112179 L482.996485,110.544113 C501.842797,142.196047 506.751707,197.338402 495.805326,254.451237 C486.391039,303.570094 462.192375,376.711935 396.274629,442.8639 C332.16502,507.202935 275.160471,524.332569 239.350262,527.958429 C200.492494,531.89495 176.473424,520.412691 176.236182,520.297303" id="Fill-7"></path>
                <path d="M407.606362,367.418729 C401.775091,362.656737 396.743126,358.2631 392.886284,354.788133 L394.470483,352.946357 C413.218128,369.839667 459.993565,408.663435 489.417091,404.443991 C496.827017,403.382195 502.620595,399.543311 506.635968,393.037179 L507.761204,393.731729 C503.529653,400.588464 497.421231,404.632607 489.604446,405.753206 C465.751667,409.173807 430.31395,385.9652 407.606362,367.418729" id="Fill-9"></path>
                <path d="M298.982431,247.239571 C269.306142,206.264474 245.394607,165.361494 227.910773,125.663437 C201.725486,66.2073291 204.194353,34.5487382 210.288363,19.1809965 C214.910144,7.52343657 222.028506,4.40018244 222.328939,4.27258946 L222.845549,5.4897155 C222.776816,5.51967211 215.881283,8.58301302 211.480115,19.7601576 C205.518029,34.9015605 203.859553,65.3230543 229.820902,124.269899 C247.265935,163.882525 271.130908,204.70562 300.752875,245.603052 L298.982431,247.239571 Z" id="Fill-11"></path>
                <path d="M264.24757,462.390729 C253.000756,453.205144 242.380306,443.648985 232.730994,434.612074 C213.715066,416.800095 182.10315,383.38294 152.381408,340.597132 C128.139508,305.702117 96.7858977,251.613791 81.7432154,196.19184 C67.5275535,143.823245 70.0097236,112.795962 74.5949203,95.9869748 C79.5969531,77.6502 87.9103936,71.8552599 88.2618219,71.617826 L88.8837502,72.5364955 C88.8006047,72.5930802 80.4993588,78.4179769 75.6225986,96.431886 C71.1105699,113.101076 68.6938076,143.889816 82.8119121,195.90226 C111.707742,302.351415 201.376275,403.723479 233.489281,433.801026 C277.642863,475.162231 342.235824,527.472022 393.149689,504.413198 L393.606435,505.422847 C353.287523,523.683066 304.729447,495.453952 264.24757,462.390729" id="Fill-13"></path>
                <path d="M141.729251,490.426234 C136.767128,486.374325 132.36596,482.494389 128.741925,479.033846 L128.081196,478.404757 C108.009874,459.245839 66.2431219,419.380246 30.3043145,341.680563 C-5.73648463,263.765635 7.3539416,209.80823 7.4903002,209.272339 L8.29625717,209.476488 C8.15989857,210.01016 -4.84738217,263.705722 31.058167,341.331069 C66.9315666,418.886517 108.620716,458.679992 128.655454,477.801187 L129.316183,478.431385 C148.755599,496.99117 190.719683,527.7788 220.578892,531.394674 L220.476901,532.221255 C195.999976,529.25555 163.493415,508.2016 141.729251,490.426234" id="Fill-15"></path>
                <path d="M219.780363,532.263527 L219.922265,531.96507 C222.405543,533.155568 246.813734,539.346601 269.155482,529.535256 C285.255775,522.465496 296.482634,508.895151 302.522322,489.199233 C318.400894,437.419785 298.392763,361.545236 248.997689,286.235424 C227.896472,254.064242 198.201336,221.89195 167.515107,197.936647 C143.395154,179.115019 107.516211,156.610946 73.5684615,156.300285 C43.7912893,156.025128 27.5978734,170.579603 19.255609,182.837405 C10.2138139,196.122607 8.18949836,209.640806 8.17065205,209.775056 L7.50881393,209.522089 C7.52876885,209.386729 9.89896967,195.998343 18.9840004,182.652118 C24.3208324,174.809033 31.0101643,168.582496 38.866859,164.144479 C48.6857873,158.599178 60.3616316,155.847607 73.5717873,155.969653 C87.4692791,156.098355 102.986445,160.044862 119.694255,167.699331 C135.136035,174.774638 151.295084,184.86114 167.717982,197.678132 C198.430818,221.637874 228.15256,253.854545 249.272623,286.054574 C271.507945,319.955473 288.485146,355.434087 298.371699,388.65264 C309.916728,427.448671 311.41889,461.310738 302.836058,489.29576 C296.767545,509.084876 285.479714,522.726229 269.287406,529.837041 C246.837015,539.696095 222.280271,533.459572 219.780363,532.263527" id="Fill-17"></path>
                <path d="M121.681764,297.492785 C96.5308074,276.950316 74.0881762,270.435308 62.5132152,271.099901 C42.198,272.263771 20.9116455,279.17931 17.0592377,321.6478 C15.018293,344.155201 23.3106701,369.547312 30.6252561,386.886643 C38.5551189,405.682752 47.0780861,419.328544 47.1634488,419.462794 C60.9478627,437.454513 74.6701947,452.078887 87.9402152,462.917632 C117.61983,487.156969 140.239838,488.502798 153.988777,485.36512 C170.865094,481.510703 181.722787,469.731097 185.892256,460.815122 C194.797693,441.769374 195.580369,392.019209 159.763508,339.602905 C148.470133,323.075732 135.656859,308.907364 121.681764,297.492785 M88.073248,464.04156 C74.7832725,453.188391 60.8636086,438.78037 47.0548053,420.755366 C46.5049365,420.683248 37.9708832,406.636926 30.0321516,387.817517 C22.6998279,370.442682 14.2034672,345.256938 16.2510635,322.679639 C18.0425717,302.924918 24.1742746,288.303872 34.0076148,280.166769 C42.9429836,272.773033 53.9237316,271.261889 62.4943689,270.771488 C74.1291947,270.103566 96.6649488,276.635217 121.889074,297.237599 C135.889666,308.671039 148.724004,322.862707 160.036225,339.416508 C195.92958,391.947091 195.126949,441.843711 186.189363,460.95492 C181.988852,469.938575 171.053557,481.805831 154.061945,485.685767 C144.937004,487.769415 135.220068,487.470959 124.999824,484.416494 C113.070109,480.851657 100.811137,474.44649 88.073248,464.04156" id="Fill-19"></path>
                <path d="M393.27352,505.784878 L392.985282,504.830704 C442.05886,482.606227 422.658245,405.866264 413.260588,368.673467 C412.906942,367.269944 412.567709,365.925225 412.247321,364.645967 C407.950362,347.47639 386.803692,299.170799 353.24728,245.535151 C324.718399,199.93675 278.903016,137.305242 222.650102,97.8523841 C197.345049,80.106975 174.308205,67.9534667 154.177018,61.728039 C138.434805,56.8595349 124.034006,55.39388 112.294971,57.7837519 C95.3665488,61.2298717 89.0264279,71.0867064 88.9632373,71.1876713 L88.2237967,70.6617663 C88.2880959,70.5596919 94.7568152,60.4521093 111.819379,56.9727043 C123.612735,54.5672994 138.461411,56.5255742 154.259055,61.4085019 C174.425717,67.6428056 197.499145,79.8129564 222.838565,97.5827746 C279.141366,137.060041 324.98003,199.73593 353.525541,245.359849 C387.103016,299.026564 408.264098,347.375425 412.5666,364.566082 C412.886987,365.845341 413.226221,367.18895 413.580975,368.593582 C422.998588,405.871812 442.597643,483.446122 393.27352,505.784878" id="Fill-21"></path>
                <path d="M505.922691,394.823702 C519.779164,366.312775 508.488006,326.821085 497.619228,299.714789 C492.483053,286.907783 444.55134,171.755678 344.596047,73.8375 C295.674349,25.9135785 265.993625,10.5824504 248.988709,5.57192975 C230.593601,0.150892562 223.667027,6.11225826 223.598293,6.17328099 L222.519619,5.22798347 C222.588353,5.16585124 229.609158,-0.908683884 248.146168,4.53121488 C258.999426,7.71660124 271.637541,14.1650393 285.710193,23.6990083 C303.293801,35.6106446 323.182203,52.3996612 344.825529,73.6011756 C385.130029,113.08399 421.576578,159.66763 453.15191,212.055087 C479.954691,256.525122 494.198068,290.300647 497.925203,299.593853 C508.818371,326.755624 520.990871,367.0395 507.077859,395.669145 L505.922691,394.823702 Z" id="Fill-23"></path>
                <path d="M74.8110986,454.51913 C56.3505822,432.83831 85.3872051,376.230299 154.475566,299.210742 C226.666916,218.73175 322.602402,151.217314 363.243918,126.761624 C403.83333,102.337 441.996002,88.417161 462.836697,90.435349 C470.200062,91.1487601 475.69099,93.6806486 479.153168,97.9588965 C483.801556,103.70058 483.078744,110.653843 483.070984,110.722632 L482.347064,110.961175 C482.355933,110.892386 483.456779,103.794888 478.894863,98.1619357 C475.491441,93.9602436 470.075898,91.4671878 462.803439,90.7626527 C452.312695,89.7463469 437.129219,92.8185638 418.895967,99.6464523 C401.66157,106.099328 382.474916,115.573384 363.413535,127.044547 C322.786431,151.491361 226.885312,218.981388 154.720568,299.430423 C119.175316,339.056363 94.3270084,372.955043 80.8640904,400.186713 C68.3955924,425.406851 67.0907625,443.262101 75.7633916,453.44513 L74.8110986,454.51913 Z" id="Fill-25"></path>
                <path d="M140.4977,501.311135 C127.975989,491.084836 117.291239,477.320327 108.669606,461.285774 C96.3297061,438.339009 88.8931734,410.361753 87.1615299,380.375185 C85.2669213,347.564929 89.9496754,312.951728 101.082302,277.496414 C133.133227,175.405392 202.758153,112.659604 241.406395,84.3439494 C248.444938,79.1880837 255.37262,74.4882242 261.998761,70.3775114 C279.620063,59.4466767 312.746335,45.2572283 348.111993,41.2419329 L348.039934,41.8410651 C312.728598,45.850813 279.76529,59.7451333 262.171704,70.6582159 C255.553323,74.7644907 248.632292,79.4588027 241.600401,84.6102304 C202.984309,112.901476 133.420356,175.592898 101.39493,277.59516 C80.046493,345.594449 82.8035975,412.490892 108.958952,461.129334 C125.006032,490.971666 149.000712,511.753788 176.525196,519.640144 L176.280194,520.600974 C163.466919,516.928515 151.340981,510.166088 140.4977,501.311135" id="Fill-27"></path>
                <path d="M50.125202,366.130372 C20.4444787,341.889926 3.43512828,309.747591 0.202431557,269.20631 L0.869812705,268.53617 C4.29318975,311.47287 22.8346344,345.679992 55.9509295,370.246633 C120.364296,417.988595 221.899354,417.723424 295.444313,401.55462 C354.660532,388.53348 411.04537,360.455259 454.206749,322.488027 C497.439079,284.461992 521.287423,241.862581 521.359483,202.540645 C521.418239,170.560298 511.057202,147.310639 502.354641,133.437399 C492.928159,118.411385 483.373079,110.861209 483.277739,110.779106 L483.479505,110.519482 C483.567085,110.584943 493.175378,118.182827 502.634009,133.263207 C511.358743,147.171951 521.747495,170.482633 521.688987,202.540645 C521.652155,222.462901 515.527104,243.258337 503.485419,264.35112 C491.896046,284.650608 475.391112,304.293269 454.424036,322.735447 C433.490218,341.149887 409.276034,357.340881 382.455516,370.857969 C354.661641,384.866569 325.409948,395.302564 295.515264,401.875267 C253.433667,411.127422 208.143764,413.886759 167.9856,409.647343 C146.112792,407.337356 125.711106,403.015837 107.343712,396.801505 C87.6670545,390.14448 70.3107102,381.298403 55.7569234,370.510695 C53.8312738,369.083872 51.9521857,367.622655 50.125202,366.130372" id="Fill-29"></path>
                <path d="M113.988589,415.741739 C103.214042,406.943371 92.9694088,397.313985 83.4520215,386.970077 C42.991208,343.005976 20.4122182,291.298646 19.8745441,241.374288 C19.6084785,216.782129 22.6649068,192.900053 28.9584662,170.390433 C33.9926486,152.380962 41.0988166,135.206947 50.0796383,119.341038 C65.3706486,92.3246126 81.0119785,78.2960424 81.1694006,78.1573543 L81.3866875,78.4036643 C81.2314826,78.5423523 65.6234109,92.5431849 50.3578986,119.517449 C36.2697264,144.410284 19.6029355,185.757065 20.2026916,241.37096 C21.3744887,349.982538 123.316405,446.403995 217.792964,468.316701 C312.332714,490.242722 385.434231,477.640974 454.818589,427.455883 C524.925759,376.747106 554.766122,285.339499 530.840175,194.580951 L531.157237,194.49552 C543.068106,239.676747 542.13355,285.44934 528.453345,326.86602 C514.899522,367.898811 489.503562,402.773854 455.011487,427.722164 C419.805468,453.186394 384.171528,468.773817 346.074263,475.375367 C307.828446,482.002435 265.843298,479.79785 217.718687,468.636239 C182.059249,460.365995 145.737972,441.673069 113.988589,415.741739" id="Fill-31"></path>
                <path d="M442.948628,473.48577 L442.734667,473.233913 C501.833374,422.901258 535.165847,338.163989 529.723698,252.091987 C526.937769,208.012498 514.338456,172.392977 504.260114,150.273902 C493.338122,126.306394 482.941609,112.586266 482.838509,112.450907 L483.10014,112.250086 C483.204349,112.386555 493.617491,126.127764 504.553894,150.127448 C514.646648,172.27315 527.262591,207.935942 530.051845,252.069797 C532.716935,294.208764 526.206089,336.847008 511.221054,375.373429 C496.017624,414.469026 472.408739,448.394334 442.948628,473.48577" id="Fill-33"></path>
                <path d="M3.12250123,219.88985 C26.3866098,93.9777738 137.268329,1.60045971 266.772421,0.236879132 C283.444755,0.0615774793 300.300009,1.42737707 316.870352,4.29766426 L316.72845,5.11647831 C300.207995,2.25617665 283.402628,0.893705579 266.78129,1.06900723 C137.67297,2.42814979 27.132702,94.5192118 3.94065287,220.039633 L3.12250123,219.88985 Z" id="Fill-35"></path>
                <path d="M217.715251,531.757482 L217.926995,530.669058 C252.565407,537.388215 288.253669,536.574949 322.620472,529.942333 L322.130468,531.891732 C287.622872,538.549866 252.493347,538.504377 217.715251,531.757482" id="Fill-37"></path>
                <path d="M499.680238,409.317599 C517.391336,381.311495 529.572705,350.49169 535.885111,317.713609 C542.101068,285.441462 542.321681,252.858655 536.543623,220.87165 C532.725582,199.734487 526.286795,179.041126 517.409074,159.368508 L517.661836,159.254229 C526.548427,178.947927 532.993865,199.663479 536.816341,220.821723 C542.60105,252.843121 542.379328,285.460324 536.15672,317.766865 C529.837662,350.578231 517.644099,381.430212 499.914154,409.465163 L499.680238,409.317599 Z" id="Fill-39"></path>
                <path d="M29.1758639,385.581422 C27.8887717,384.530722 26.710323,383.350209 25.5329828,382.054308 L26.2302963,381.400811 C33.2632963,389.137383 39.1599746,394.034734 79.4822123,388.649201 C119.68472,383.28142 219.051343,344.212451 309.481489,290.454757 C418.718036,225.517699 467.063259,174.713505 486.15679,150.210106 C495.006796,138.854331 498.024423,129.14617 495.472411,121.91886 C492.525735,113.568732 482.538298,111.893381 482.439632,111.871191 L482.857577,111.132261 C482.95846,111.154451 492.945897,113.568732 495.955764,122.090833 C498.551011,129.431313 495.341595,138.960844 486.417313,150.413145 C467.307153,174.935406 418.933106,225.772885 309.651106,290.73879 C219.183268,344.515346 119.760106,383.603176 79.525448,388.976505 C46.9823025,393.322432 36.3940012,391.476218 29.1758639,385.581422" id="Fill-41"></path>
            </g>
            <g id="Group-87" transform="translate(1.000000, 0.000000)">
                <path d="M229.36809,3.3486653 L229.747866,4.61383984 C229.610571,4.65708419 215.785866,9.19552361 203.730492,39.7105133 C192.578608,67.9402053 180.724748,124.744435 187.590598,235.057454 C188.181851,244.551253 188.909292,254.40653 189.750777,264.350513 L187.368047,264.756345 C186.525455,254.802382 185.796907,244.936016 185.205653,235.433347 C178.306587,124.577002 191.359562,67.2405339 202.628812,38.9088296 C214.92888,7.98246407 228.784587,3.52275154 229.36809,3.3486653" id="Fill-44" fill="#1CA296"></path>
                <path d="M317.137253,5.3010924 C317.498205,5.32770431 326.089098,6.19924435 334.871539,25.6514415 C342.901073,43.4337413 352.624648,80.9520986 353.355411,158.696575 C353.853659,211.765158 349.729277,272.037807 341.739603,328.411811 L339.849585,328.590333 C347.833723,272.255138 351.954782,212.025733 351.457642,158.998177 C350.063657,10.7321396 317.414057,6.156 317.073034,6.12938809 L317.137253,5.3010924 Z" id="Fill-46" fill="#1CA296"></path>
                <path d="M414.963705,44.65423 C415.124252,44.7351745 431.240895,53.0181314 447.944363,75.8821971 C463.334672,96.9455236 482.421977,135.078172 485.958427,197.122731 C488.859334,248.015791 475.86947,309.686674 450.318235,366.32347 C441.448324,385.983018 431.215429,404.693409 419.900784,421.935708 C402.072384,449.105359 381.880076,472.231109 359.886328,490.667618 L359.175495,489.817146 C381.086202,471.450493 400.914235,447.337885 418.681738,420.258049 C429.964274,403.063429 440.169489,384.404045 449.015041,364.797721 C474.495414,308.319487 487.74326,247.906016 484.852318,197.185934 C481.333584,135.457392 462.379144,97.5398563 447.098449,76.6007187 C430.547777,53.9218275 414.62379,45.7242505 414.466565,45.6444148 L414.963705,44.65423 Z" id="Fill-48" fill="#1CA296"></path>
                <path d="M117.178161,48.2048131 L117.708518,49.1794743 C117.478217,49.3047721 94.4680435,62.1195154 75.3364497,95.830152 C57.6708105,126.958324 39.7925858,182.777914 54.9437363,271.92892 C70.5410951,363.695655 114.810932,425.886579 149.201076,461.898037 C189.132839,503.713109 236.546064,531.521446 272.936949,534.470932 L272.847264,535.575326 C236.197291,532.605881 188.511691,504.667811 148.400559,462.665347 C113.903015,426.540789 68.428526,364.451877 52.7857713,272.407934 C37.5704023,182.886579 56.6366703,126.500378 74.4152456,95.2114251 C93.7062786,61.2579548 116.946753,48.3312197 117.178161,48.2048131" id="Fill-50" fill="#1CA296"></path>
                <path d="M107.582469,325.342349 C114.829201,323.347565 121.315275,321.790768 126.375255,320.658653 L126.955436,323.018242 C102.365265,328.51471 43.7160074,344.153643 30.1171744,370.580378 C26.6914466,377.236682 26.4589311,384.180172 29.4262713,391.222349 L28.2105476,391.736846 C25.0837682,384.317667 25.3295703,376.994957 28.9435249,369.974957 C39.9691868,348.55237 79.355092,333.108591 107.582469,325.342349" id="Fill-52" fill="#1CA296"></path>
                <path d="M268.19319,306.412189 C318.693335,305.955351 365.79986,310.156706 408.204038,318.899828 C471.713976,331.992887 496.031772,352.342127 505.001333,366.211368 C511.806285,376.729725 510.22518,384.34184 510.155425,384.660074 L508.867733,384.377322 C508.882126,384.303031 510.382405,376.907138 503.84097,366.847836 C494.978809,353.216994 471.198013,334.246029 408.231718,321.263852 C365.918333,312.538472 318.904813,308.347097 268.498782,308.802825 L268.19319,306.412189 Z" id="Fill-54" fill="#1CA296"></path>
                <path d="M113.327705,153.482969 C127.30742,149.636439 141.225132,146.513975 154.160742,143.883832 C179.653295,138.700053 225.127783,132.288801 277.127099,132.845433 C319.537919,133.296727 381.673802,139.069294 435.453521,158.908472 C486.27033,177.653236 510.067734,197.64876 521.082324,211.121039 C533.100051,225.819684 532.999295,235.952168 532.99019,236.37685 L531.88322,236.350238 C531.884328,236.250444 531.951868,226.110197 520.126796,211.702066 C509.181961,198.36839 485.540674,178.565803 435.070425,159.948554 C331.773769,121.844735 197.430763,136.217384 154.381078,144.970485 C95.1870699,157.004612 15.2571111,179.354181 4.53925546,234.211306 L3.4541833,233.997302 C11.9409977,190.557795 63.0058225,167.328924 113.327705,153.482969" id="Fill-56" fill="#1CA296"></path>
                <path d="M161.444566,37.3801971 C167.612869,35.6825791 173.316141,34.3431129 178.226646,33.392846 L179.121277,33.2198686 C206.32005,27.9551458 262.916529,17.0032361 346.908865,32.7131335 C431.134824,48.4651663 467.438238,90.3877947 467.795869,90.8091499 L467.162541,91.3469322 C466.807125,90.9277947 430.668685,49.2247146 346.756069,33.529232 C262.91985,17.8492731 206.42745,28.7823326 179.278502,34.0359671 L178.383871,34.2100534 C152.038762,39.3040164 102.71116,55.6769938 82.4867431,77.920115 L81.8722379,77.3590472 C98.4528049,59.1254538 134.389731,44.82377 161.444566,37.3801971" id="Fill-58" fill="#1CA296"></path>
                <path d="M82.2418268,76.7669322 L82.4023732,77.0552279 C79.997499,78.3902587 60.8349031,94.7000329 55.8812165,118.593092 C52.3115505,135.810998 56.8489237,152.821552 69.3704351,169.153503 C102.289089,212.087384 175.575748,239.723852 265.41308,243.082497 C303.790311,244.517322 347.142266,238.947671 384.385707,227.810587 C413.654975,219.051943 452.723109,202.841963 472.626433,175.35186 C490.08613,151.239253 487.62368,129.609314 482.482874,115.710136 C476.912468,100.645577 467.090351,91.166193 466.991808,91.0719425 L467.580847,90.6794168 C467.67939,90.7736674 477.195915,100.461511 482.792895,115.595926 C486.080221,124.488739 487.272693,133.547877 486.333773,142.521634 C485.159016,153.737446 480.638252,164.847918 472.893272,175.544797 C464.745266,186.798308 452.553705,197.161429 436.658505,206.345864 C421.964635,214.835064 404.409718,222.162209 384.479821,228.125495 C347.216449,239.282538 303.812456,244.846645 265.400901,243.411819 C224.959819,241.900485 186.27921,235.189848 153.54214,224.006193 C115.308847,210.946398 86.9009938,192.557569 69.1102392,169.353092 C56.5289381,152.943524 51.9694206,135.842045 55.5590165,118.525454 C60.5359546,94.5159671 79.8225588,78.1119425 82.2418268,76.7669322" id="Fill-60" fill="#1CA296"></path>
                <path d="M329.952398,132.788329 C361.21687,124.186029 379.504765,109.667014 385.66421,99.8472197 C396.477286,82.6137906 403.175946,61.2577331 370.867369,33.5203614 C353.744266,18.8206078 328.293787,10.8714086 309.958282,6.79091581 C290.082639,2.36779466 274.053466,1.41198357 273.892919,1.40311294 C251.281344,2.21699384 231.446668,4.93140862 214.951356,9.47095688 C178.057796,19.6211828 163.869924,37.2804025 158.464493,50.3047146 C151.830051,66.2918193 155.125128,81.9651253 159.962556,90.528616 C170.297315,108.81876 210.303262,138.271491 273.662618,139.437979 C293.641233,139.806111 312.580171,137.568493 329.952398,132.788329 M213.959291,8.92652156 C230.478961,4.38142916 250.253847,1.38093634 272.906389,0.565946612 C273.281736,0.16011499 289.645288,1.33990965 309.545291,5.76857495 C327.919548,9.85572074 353.320202,17.5177331 370.495344,32.2629487 C385.523594,45.1663984 393.865363,58.6331335 394.790996,71.3613881 C395.631373,82.9264805 390.503853,92.7529281 385.942121,100.022415 C379.751674,109.892107 361.395132,124.477651 330.038761,133.105454 C312.636639,137.89338 293.667806,140.135433 273.655975,139.767302 C210.161538,138.598595 170.045977,109.043852 159.676895,90.6905051 C154.804035,82.0627023 151.481278,66.2762957 158.161115,50.178308 C161.748497,41.5338727 167.616744,33.7864805 176.016088,27.2255359 C185.820491,19.5668501 198.12388,13.2842218 213.959291,8.92652156" id="Fill-62" fill="#1CA296"></path>
                <path d="M3.35220866,233.516957 L4.29555711,233.835191 C-6.03588,286.706402 67.6028746,315.340817 103.288462,329.225581 C104.634838,329.750057 105.925852,330.251248 107.151541,330.731372 C123.600349,337.173671 175.125776,347.914903 238.169576,351.629483 C291.765497,354.788538 369.220827,353.720735 433.866769,330.720283 C462.944489,320.372686 486.163926,308.634616 502.879574,295.83207 C515.949157,285.819339 525.477862,274.930632 530.329685,263.977614 C537.323972,248.184554 532.978147,237.305828 532.932751,237.196053 L533.789736,236.898887 C533.835132,237.00977 538.310501,248.136875 531.264176,264.059667 C526.39353,275.06591 516.207139,286.035561 503.091052,296.082665 C486.347724,308.910715 463.093963,320.668743 433.975277,331.029647 C369.282831,354.055602 291.777677,355.118969 238.150753,351.958805 C175.070415,348.242008 123.501807,337.48747 107.031961,331.038517 C105.805165,330.558394 104.516365,330.056094 103.168883,329.531618 C67.400254,315.616916 -7.03126763,286.658723 3.35220866,233.516957" id="Fill-64" fill="#1CA296"></path>
                <path d="M28.3867058,389.606895 C43.5533573,417.414123 82.2040707,431.085992 110.539955,437.925253 C123.928417,441.157491 245.320312,468.785088 382.811135,444.027142 C450.10111,431.908743 479.750153,416.596916 493.667865,405.638353 C508.723794,393.784965 507.884524,384.684801 507.874559,384.593877 L509.268545,384.262337 C509.281109,384.35437 510.155425,393.596464 495.000953,405.554082 C486.128827,412.555232 473.569671,419.121721 457.668935,425.070591 C437.805471,432.503076 412.639547,438.989729 382.869817,444.35092 C327.429273,454.333713 268.450065,457.060324 207.568658,452.455355 C155.889328,448.544513 120.177168,440.58977 110.461343,438.245704 C82.0656687,431.392029 42.2601285,417.980735 27.0303656,390.058189 L28.3867058,389.606895 Z" id="Fill-66" fill="#1CA296"></path>
                <path d="M229.381155,3.63352361 C257.698217,1.14420123 286.926518,57.5991499 309.573525,158.523708 C333.235848,263.978945 332.611378,381.280916 328.975279,428.572497 C325.343609,475.804201 314.575929,514.972497 300.870803,530.79106 C296.027838,536.379561 290.789597,539.388924 285.305553,539.732661 C277.9481,540.196152 272.710966,535.578986 272.658927,535.532415 L272.884799,534.806131 C272.934624,534.851593 278.069894,539.861285 285.29116,539.404448 C290.678875,539.064037 295.840718,536.093483 300.622786,530.574838 C307.521852,522.611224 313.811949,508.455906 318.814353,489.640177 C323.541061,471.85455 326.94243,450.729129 328.647543,428.548103 C332.282535,381.272045 332.905898,264.013318 309.252432,158.595782 C297.6023,106.67262 284.416459,66.7824764 270.062504,40.0375072 C256.769263,15.2673634 243.005454,3.86194251 229.703355,5.0317577 L229.381155,3.63352361 Z" id="Fill-68" fill="#1CA296"></path>
                <path d="M153.305971,30.0721232 C168.870113,25.7887146 186.247876,25.0524517 204.280004,27.3122464 C230.082577,30.5444846 257.140734,40.6869487 282.530315,56.6452238 C310.30927,74.1037454 335.746462,97.9690842 358.138808,127.580378 C422.610917,212.836066 433.338738,305.928961 433.995317,353.831507 C434.114897,362.555778 433.925563,370.924115 433.433959,378.70699 C432.123014,399.401076 424.488756,434.62083 407.283719,465.772287 L406.837511,465.366456 C424.015975,434.262678 431.797493,399.345634 433.105115,378.684813 C433.596719,370.911918 433.786053,362.552452 433.666474,353.835943 C433.009895,305.973314 422.292039,212.960255 357.876398,127.777749 C314.933006,70.990152 258.933317,34.490809 204.23793,27.6382423 C170.680412,23.4335606 139.890936,30.9547515 117.5462,48.8213224 L116.906229,48.0662094 C127.309635,39.7488789 139.826717,33.7811581 153.305971,30.0721232" id="Fill-70" fill="#1CA296"></path>
                <path d="M315.552051,34.7072526 C352.444504,24.554809 388.430148,29.3083614 423.272036,50.1554661 L423.431475,51.086883 C386.530164,29.0078686 347.9791,24.3086489 308.832354,37.072386 C232.721185,61.9223655 174.16604,144.837314 144.745084,214.148033 C121.056187,269.956534 111.255106,332.178505 117.14882,389.350867 C123.049176,446.614152 143.889205,490.72561 175.825758,513.560846 C201.79995,532.131524 226.70457,537.152304 243.023834,538.094809 C260.700546,539.114932 272.371715,535.698628 272.494616,535.66869 L272.587622,535.984706 C272.484651,536.017971 260.743727,539.447581 243.006119,538.423023 C226.642566,537.4783 201.67262,532.445322 175.635317,513.828074 C159.454455,502.260764 146.088137,485.222489 135.90396,463.190045 C126.103987,441.987006 119.684346,417.155877 116.821084,389.38524 C113.963358,361.654522 114.811486,332.539984 119.343323,302.851072 C124.039028,272.081051 132.483768,242.194768 144.442814,214.019409 C161.276933,174.359901 185.247063,135.845815 211.939838,105.569224 C226.478698,89.0798193 241.803682,74.9522218 257.488511,63.5811745 C274.291628,51.3984641 291.533203,42.374809 308.729383,36.7596961 C311.004713,36.0167803 313.280042,35.3326324 315.552051,34.7072526" id="Fill-72" fill="#1CA296"></path>
                <path d="M238.238887,58.0267146 C251.630671,54.3409651 265.392265,51.5677823 279.312191,49.800308 C338.487376,42.2868789 393.607935,53.8320123 434.520692,82.3100821 C454.673139,96.3367762 472.326599,112.660965 486.990574,130.828029 C498.721533,145.362567 508.57576,161.102402 516.280879,177.611766 C529.39918,205.723922 531.75423,226.598747 531.777481,226.807207 L531.450852,226.84269 C531.427601,226.635339 529.075873,205.802649 515.975287,177.737064 C503.885591,151.835914 479.90771,114.302033 434.332465,82.5795277 C345.324438,20.6270021 207.904477,47.8698357 135.397298,112.186386 C62.8436153,176.543963 30.7775184,243.428563 31.4296689,329.051273 C32.0873555,415.564374 89.1532936,492.832053 176.811624,525.89846 L176.696473,526.206715 C133.058856,509.74614 96.3756668,482.47115 70.6118462,447.33345 C45.0871843,412.51731 31.42524,371.617023 31.1008256,329.0546 C30.7708751,285.608439 38.7206895,247.535667 55.4031204,212.658542 C72.1519843,177.64614 98.2468627,144.700595 135.180283,111.940226 C162.547353,87.6646201 198.772155,68.8854825 238.238887,58.0267146" id="Fill-74" fill="#1CA296"></path>
                <path d="M0.866286186,292.715261 L1.19402227,292.686431 C7.91925526,370.010661 57.5380553,446.260435 130.68742,491.679203 C168.147876,514.938012 204.408109,525.300025 228.230979,529.895014 C254.043517,534.875877 271.217552,534.348074 271.389171,534.34253 L271.399136,534.671852 C271.228624,534.677396 254.025802,535.206308 228.177833,530.22101 C204.326175,525.620476 168.021653,515.246267 130.514694,491.95752 C94.7028841,469.723269 63.7960429,439.718341 41.1368573,405.191606 C18.1432924,370.154809 4.21893773,331.261503 0.866286186,292.715261" id="Fill-76" fill="#1CA296"></path>
                <path d="M461.688463,81.0993511 C550.620092,172.991384 561.564927,316.875326 487.712479,423.22317 C478.205918,436.913889 467.338588,449.861692 455.411652,461.706209 L454.827042,461.116312 C466.71744,449.307277 477.552661,436.398283 487.030434,422.748591 C560.657009,316.725634 549.748712,173.285224 461.09278,81.6781602 L461.688463,81.0993511 Z" id="Fill-78" fill="#1CA296"></path>
                <path d="M83.8486194,75.3771253 L84.6114915,76.1799179 C59.0979019,100.520945 39.101572,130.082341 24.6014647,161.935688 L23.3004854,160.406612 C37.8603823,128.424641 58.2309513,99.8168378 83.8486194,75.3771253" id="Fill-80" fill="#1CA296"></path>
                <path d="M20.2129014,376.123306 C32.7377344,406.780226 50.7499324,434.560842 73.7534623,458.691191 C96.4015757,482.450082 122.771044,501.501992 152.129996,515.319117 C171.529536,524.450329 192.083904,531.187577 213.221774,535.346797 L213.168627,535.61846 C192.008613,531.455914 171.432101,524.709795 152.012631,515.570821 C122.621569,501.738172 96.224421,482.665195 73.5519489,458.88191 C50.5262746,434.727166 32.4941468,406.917721 19.9571344,376.228645 L20.2129014,376.123306 Z" id="Fill-82" fill="#1CA296"></path>
                <g id="Group-86" transform="translate(222.550515, 5.435318)">
                    <mask id="mask-2" fill="white">
                        <use xlink:href="#path-1"></use>
                    </mask>
                    <g id="Clip-85"></g>
                    <path d="M89.309079,0.93013963 C90.9078996,0.489934292 92.5499016,0.212726899 94.2849099,0.00315811088 L94.4122398,0.951207392 C84.0509078,2.20196715 76.6547016,4.17235729 57.6947264,40.1583121 C38.790112,76.0356016 13.0473285,179.657943 4.42100474,284.504431 C-5.99900969,411.154945 7.33409134,479.98554 16.2095388,509.74209 C20.322848,523.533713 26.470114,531.615971 33.8253532,533.721639 C42.3221326,536.15552 49.4658934,528.985828 49.5400769,528.918189 L49.8988151,529.686608 C49.8235243,529.755355 42.0774377,536.498148 33.4046109,534.016587 C25.933114,531.878764 20.0416151,523.743281 15.8939821,509.836341 C7.01189134,480.057614 -6.33006742,411.180448 4.09326866,284.477819 C12.722914,179.590304 38.4845202,75.9114127 57.4046357,40.0041848 C72.7063676,10.9606119 80.3361965,3.39950308 89.309079,0.93013963" id="Fill-84" fill="#1CA296" mask="url(#mask-2)"></path>
                </g>
            </g>
            <g id="Group-361" transform="translate(0.000000, 1.000000)">
                <path d="M309.698244,413.156726 C309.394728,415.47179 311.021974,417.594949 313.3349,417.898891 C315.64672,418.203943 317.766902,416.573304 318.071526,414.25824 C318.375043,411.943176 316.746689,409.818908 314.43487,409.514965 C312.123051,409.209914 310.00176,410.840553 309.698244,413.156726" id="Fill-88" fill="#1CA296"></path>
                <path d="M191.100373,227.239456 C190.753655,229.887304 188.327741,231.752 185.682497,231.403687 C183.038361,231.056483 181.176277,228.627163 181.522995,225.979316 C181.87082,223.330359 184.296735,221.465662 186.941979,221.813976 C189.586115,222.162289 191.448198,224.590499 191.100373,227.239456" id="Fill-90" fill="#1CA296"></path>
                <path d="M39.9270102,293.186831 C39.7110041,294.830781 38.2056077,295.988868 36.5628537,295.772558 C34.9212073,295.557358 33.7658516,294.04874 33.9818577,292.404789 C34.1978638,290.760839 35.7032602,289.603861 37.3449065,289.819061 C38.9865528,290.035371 40.1430163,291.543989 39.9270102,293.186831" id="Fill-92" fill="#1CA296"></path>
                <path d="M401.482447,65.8914812 C401.208839,67.9824709 399.293585,69.453374 397.206634,69.1793823 C395.118575,68.9042812 393.648626,66.9874482 393.923341,64.8964586 C394.196949,62.8065781 396.111096,61.3345658 398.199154,61.6085575 C400.287213,61.8836586 401.757163,63.8004915 401.482447,65.8914812" id="Fill-94" fill="#1CA296"></path>
                <path d="M234.469302,4.07727794 C234.215633,6.01851505 232.437737,7.3840367 230.500328,7.12890268 C228.561812,6.87376866 227.198204,5.09448619 227.452981,3.15435835 C227.707757,1.21312124 229.484546,-0.152400412 231.423062,0.102733608 C233.360471,0.356758351 234.724078,2.1371501 234.469302,4.07727794" id="Fill-96" fill="#1CA296"></path>
                <path d="M486.972897,110.698007 C486.718121,112.638135 484.940225,114.004766 483.002816,113.749632 C481.065408,113.494498 479.7018,111.715215 479.955468,109.773978 C480.211353,107.83385 481.988141,106.468329 483.92555,106.723463 C485.862958,106.977487 487.226566,108.757879 486.972897,110.698007" id="Fill-98" fill="#1CA296"></path>
                <path d="M182.066112,520.56826 C181.811335,522.508388 180.034547,523.873909 178.097138,523.619885 C176.158622,523.364751 174.795014,521.584359 175.049791,519.644231 C175.304567,517.704103 177.081356,516.338581 179.018764,516.592606 C180.956173,516.84774 182.31978,518.628132 182.066112,520.56826" id="Fill-100" fill="#1CA296"></path>
                <path d="M428.810985,43.6695299 C428.557316,45.6096577 426.77942,46.9762887 424.842011,46.7211546 C422.904603,46.4660206 421.540995,44.6867381 421.794664,42.745501 C422.04944,40.8053732 423.826229,39.4398515 425.763637,39.6949856 C427.702153,39.9490103 429.065761,41.7294021 428.810985,43.6695299" id="Fill-102" fill="#1CA296"></path>
                <path d="M190.196581,455.237866 C190.062547,456.260621 189.125413,456.980542 188.102984,456.84632 C187.081663,456.712097 186.36275,455.773647 186.496785,454.750893 C186.630819,453.728138 187.567953,453.007107 188.589274,453.14133 C189.611703,453.275553 190.331724,454.214002 190.196581,455.237866" id="Fill-104" fill="#1CA296"></path>
                <path d="M22.61606,194.864502 C22.4820254,195.887256 21.5448913,196.608287 20.5224624,196.474065 C19.5011413,196.339842 18.7822287,195.400283 18.9162632,194.377529 C19.0502978,193.354774 19.9874319,192.633743 21.008753,192.767966 C22.0311819,192.902188 22.7500945,193.841747 22.61606,194.864502" id="Fill-106" fill="#1CA296"></path>
                <path d="M355.243628,512.86177 C355.109593,513.884525 354.172459,514.604447 353.15003,514.470224 C352.128709,514.336001 351.409797,513.397552 351.543831,512.374797 C351.677866,511.352042 352.615,510.631012 353.637429,510.765234 C354.65875,510.899457 355.377663,511.837906 355.243628,512.86177" id="Fill-108" fill="#1CA296"></path>
                <path d="M215.297819,534.988878 C215.171539,535.951732 214.288683,536.629501 213.327179,536.503043 C212.364567,536.377695 211.687748,535.4936 211.812921,534.529637 C211.940309,533.566784 212.823165,532.887905 213.784669,533.015472 C214.746173,533.14193 215.4241,534.024915 215.297819,534.988878" id="Fill-110" fill="#1CA296"></path>
                <path d="M180.85393,409.130268 C180.727649,410.093121 179.844794,410.77089 178.88329,410.644433 C177.920678,410.519084 177.243859,409.634989 177.370139,408.671026 C177.49642,407.708173 178.379275,407.029294 179.340779,407.156861 C180.302284,407.283319 180.98021,408.166305 180.85393,409.130268" id="Fill-112" fill="#1CA296"></path>
                <path d="M110.100302,399.188915 C109.949651,400.331472 108.902853,401.136808 107.761897,400.987055 C106.619834,400.836193 105.815627,399.787925 105.966277,398.645369 C106.11582,397.501703 107.163727,396.697476 108.304682,396.847228 C109.446745,396.996981 110.249845,398.046358 110.100302,399.188915" id="Fill-114" fill="#1CA296"></path>
                <path d="M143.664659,428.127658 C143.473022,429.586359 142.137108,430.61466 140.679343,430.422755 C139.222687,430.230849 138.196935,428.891951 138.388571,427.433249 C138.580207,425.974548 139.916122,424.947357 141.372778,425.139262 C142.830543,425.331167 143.856295,426.668957 143.664659,428.127658" id="Fill-116" fill="#1CA296"></path>
                <path d="M69.2265203,442.850555 C69.0515,444.187235 67.8274654,445.127903 66.4937663,444.952637 C65.1589593,444.776262 64.2196098,443.551619 64.3946301,442.214938 C64.5707581,440.879367 65.793685,439.938699 67.1284919,440.113965 C68.4632988,440.289231 69.4026484,441.514984 69.2265203,442.850555" id="Fill-118" fill="#1CA296"></path>
                <path d="M346.537585,292.281216 C346.31161,294.003925 344.734211,295.216366 343.015024,294.988964 C341.295837,294.762671 340.085096,293.183059 340.311071,291.462568 C340.537047,289.739859 342.114445,288.527418 343.833632,288.753711 C345.552819,288.980003 346.763561,290.559616 346.537585,292.281216" id="Fill-120" fill="#1CA296"></path>
                <path d="M517.475395,369.706404 C517.24942,371.428004 515.672021,372.640445 513.952834,372.413043 C512.234755,372.186751 511.024013,370.608247 511.248881,368.886647 C511.474857,367.165047 513.052255,365.952606 514.771442,366.178899 C516.490629,366.405192 517.701371,367.983695 517.475395,369.706404" id="Fill-122" fill="#1CA296"></path>
                <path d="M300.607046,458.513676 C300.38107,460.235276 298.803672,461.448826 297.084485,461.221424 C295.365298,460.995132 294.154556,459.415519 294.380532,457.695028 C294.606507,455.972319 296.183905,454.759878 297.903092,454.986171 C299.621172,455.212464 300.831914,456.792076 300.607046,458.513676" id="Fill-124" fill="#1CA296"></path>
                <path d="M328.922233,529.767505 C328.682964,531.590049 327.014733,532.872375 325.196958,532.632771 C323.376968,532.393167 322.09644,530.721485 322.335708,528.901159 C322.574977,527.079724 324.243208,525.797398 326.06209,526.037002 C327.880973,526.276606 329.161501,527.94607 328.922233,529.767505" id="Fill-126" fill="#1CA296"></path>
                <path d="M495.382513,107.421642 C495.247371,108.452162 494.30359,109.17763 493.276731,109.041189 C492.247655,108.905857 491.524312,107.961861 491.659454,106.932451 C491.794597,105.901931 492.737269,105.176463 493.765237,105.311795 C494.794312,105.447127 495.517655,106.392232 495.382513,107.421642" id="Fill-128" fill="#1CA296"></path>
                <path d="M31.0462795,384.865802 C30.9122449,385.885229 29.9784339,386.602932 28.960436,386.468709 C27.942438,386.335596 27.2257409,385.400474 27.3586677,384.381047 C27.4927022,383.361621 28.4265132,382.643918 29.4456189,382.777031 C30.4636169,382.911254 31.180314,383.846375 31.0462795,384.865802" id="Fill-130" fill="#1CA296"></path>
                <path d="M75.6164238,338.860035 C75.3959868,340.536155 73.8617896,341.716427 72.1880193,341.495681 C70.514249,341.276044 69.3356311,339.738584 69.5549604,338.062464 C69.7753974,336.387454 71.3107022,335.206073 72.9844726,335.426819 C74.6582429,335.647565 75.835753,337.183916 75.6164238,338.860035" id="Fill-132" fill="#1CA296"></path>
                <path d="M307.907941,247.665708 C307.511376,250.69071 304.740959,252.820524 301.720197,252.423402 C298.699435,252.025172 296.572606,249.250866 296.969171,246.225864 C297.365736,243.201972 300.136152,241.072157 303.156915,241.469279 C306.177677,241.8664 308.304506,244.640706 307.907941,247.665708" id="Fill-134" fill="#1CA296"></path>
                <path d="M280.41391,173.937744 C280.110393,176.253917 277.989103,177.884556 275.676176,177.580614 C273.364357,177.275562 271.734895,175.151294 272.038412,172.836231 C272.343036,170.520057 274.464326,168.889418 276.777253,169.19336 C279.09018,169.498412 280.717426,171.621571 280.41391,173.937744" id="Fill-136" fill="#1CA296"></path>
                <path d="M227.85165,186.305532 C227.744201,187.12307 226.99538,187.698786 226.178988,187.591186 C225.362596,187.483586 224.787687,186.733713 224.895136,185.916175 C225.002585,185.098637 225.751407,184.522922 226.567799,184.630522 C227.384191,184.737012 227.9591,185.487994 227.85165,186.305532" id="Fill-138" fill="#1CA296"></path>
                <path d="M10.371062,339.629209 C10.2370274,340.651964 9.30100102,341.370776 8.27967988,341.236553 C7.25835874,341.102331 6.54055386,340.163881 6.67458841,339.143345 C6.80862297,338.120591 7.74464939,337.400669 8.76597053,337.534892 C9.78618394,337.669114 10.5050965,338.606454 10.371062,339.629209" id="Fill-140" fill="#1CA296"></path>
                <path d="M297.463548,303.41837 C297.315113,304.546506 296.281607,305.34075 295.155052,305.193216 C294.027389,305.044572 293.235367,304.009616 293.381586,302.88148 C293.530021,301.752234 294.564635,300.957991 295.69119,301.106634 C296.817745,301.254168 297.611983,302.289125 297.463548,303.41837" id="Fill-142" fill="#1CA296"></path>
                <path d="M418.301679,43.9409703 C418.153244,45.0691064 417.120846,45.8633497 415.993183,45.7158157 C414.86552,45.5671724 414.073498,44.5322157 414.220825,43.4040796 C414.368152,42.2759435 415.402766,41.4805909 416.529321,41.6292342 C417.655876,41.7778775 418.450114,42.8128342 418.301679,43.9409703" id="Fill-144" fill="#1CA296"></path>
                <path d="M73.90344,98.5522965 C73.0516006,98.4491336 72.4445681,97.673748 72.5464787,96.820713 C72.649497,95.9676779 73.422688,95.3597934 74.2745274,95.4629563 C75.1263669,95.5650099 75.7345071,96.3403955 75.6325965,97.1934305 C75.5295783,98.0464656 74.7552795,98.6543501 73.90344,98.5522965" id="Fill-146" fill="#1CA296"></path>
                <path d="M443.393058,207.680327 C442.105883,207.525028 441.189796,206.355849 441.343769,205.066868 C441.498851,203.778995 442.667499,202.860513 443.953566,203.014703 C445.239633,203.171111 446.156828,204.34029 446.001747,205.629272 C445.847773,206.917144 444.679125,207.835626 443.393058,207.680327" id="Fill-148" fill="#1CA296"></path>
                <path d="M415.146107,343.937313 C413.858932,343.780905 412.942845,342.611726 413.096818,341.323854 C413.251899,340.034872 414.420548,339.11639 415.706615,339.271689 C416.992682,339.426988 417.909877,340.597276 417.754796,341.885148 C417.600822,343.17413 416.432174,344.092612 415.146107,343.937313" id="Fill-150" fill="#1CA296"></path>
                <path d="M490.751564,260.257237 C489.465497,260.101938 488.548302,258.931649 488.702275,257.643777 C488.857357,256.355905 490.027113,255.437423 491.31318,255.591612 C492.599247,255.748021 493.516442,256.9172 493.361361,258.205072 C493.206279,259.494054 492.037631,260.412536 490.751564,260.257237" id="Fill-152" fill="#1CA296"></path>
                <path d="M509.291866,394.983641 C508.004691,394.828342 507.088604,393.659162 507.242577,392.37129 C507.397659,391.082309 508.566307,390.163826 509.852374,390.319125 C511.138441,390.474424 512.055636,391.643604 511.900555,392.932585 C511.746581,394.221567 510.577933,395.140049 509.291866,394.983641" id="Fill-154" fill="#1CA296"></path>
                <path d="M409.23762,272.943055 C407.951553,272.787756 407.034358,271.617468 407.188331,270.329595 C407.34452,269.041723 408.513169,268.123241 409.799236,268.277431 C411.085303,268.433839 412.002498,269.603018 411.847417,270.89089 C411.693443,272.179872 410.523687,273.098354 409.23762,272.943055" id="Fill-156" fill="#1CA296"></path>
                <path d="M296.875014,175.045358 C295.587839,174.890059 294.671752,173.72088 294.825726,172.431899 C294.980807,171.144026 296.149455,170.225544 297.435522,170.380843 C298.721589,170.536142 299.638785,171.705321 299.483703,172.994303 C299.32973,174.282175 298.161081,175.200657 296.875014,175.045358" id="Fill-158" fill="#1CA296"></path>
                <path d="M212.318597,413.170814 C211.031422,413.015515 210.115334,411.846336 210.269308,410.557354 C210.424389,409.268373 211.593038,408.34989 212.879105,408.505189 C214.165172,408.661598 215.083475,409.830777 214.928393,411.118649 C214.773312,412.407631 213.604664,413.326113 212.318597,413.170814" id="Fill-160" fill="#1CA296"></path>
                <path d="M227.667214,203.129402 C226.381147,202.974103 225.463952,201.803814 225.617926,200.515942 C225.774115,199.22807 226.941655,198.309588 228.227723,198.463777 C229.514897,198.620186 230.432092,199.789365 230.277011,201.077237 C230.12193,202.366219 228.953282,203.284701 227.667214,203.129402" id="Fill-162" fill="#1CA296"></path>
                <path d="M77.0346423,271.744924 C75.7485752,271.589625 74.8313801,270.419336 74.9853537,269.131464 C75.1415427,267.843592 76.3090833,266.925109 77.5951504,267.079299 C78.8823252,267.235707 79.7995203,268.404887 79.644439,269.692759 C79.4893577,270.98174 78.3218171,271.900223 77.0346423,271.744924" id="Fill-164" fill="#1CA296"></path>
                <path d="M462.437485,81.9131212 C461.584538,81.8099584 460.978613,81.0345728 461.080523,80.1815377 C461.183542,79.3285027 461.956733,78.7206181 462.80968,78.823781 C463.660412,78.9258346 464.268552,79.7012202 464.166641,80.5542553 C464.063623,81.4072903 463.290432,82.0151748 462.437485,81.9131212" id="Fill-166" fill="#1CA296"></path>
                <path d="M119.383468,208.789606 C118.097401,208.634307 117.180206,207.465127 117.33418,206.176146 C117.490369,204.888274 118.65791,203.969791 119.945084,204.12509 C121.231151,204.280389 122.148347,205.449569 121.993265,206.73855 C121.838184,208.026422 120.670643,208.944905 119.383468,208.789606" id="Fill-168" fill="#1CA296"></path>
                <path d="M151.507452,509.126719 C150.221385,508.97142 149.30419,507.802241 149.459271,506.514369 C149.614353,505.225387 150.781893,504.306905 152.06796,504.462204 C153.355135,504.617503 154.27233,505.786682 154.117249,507.074554 C153.962168,508.364645 152.794627,509.283127 151.507452,509.126719" id="Fill-170" fill="#1CA296"></path>
                <path d="M277.329786,53.1921299 C276.043718,53.0368309 275.126523,51.8665423 275.281605,50.5786701 C275.436686,49.2896887 276.605334,48.3712062 277.891401,48.5265052 C279.177468,48.6818041 280.094664,49.8520928 279.939582,51.1399649 C279.785609,52.4289464 278.615853,53.3474289 277.329786,53.1921299" id="Fill-172" fill="#1CA296"></path>
                <path d="M121.872523,122.38015 C120.585349,122.224851 119.668153,121.054562 119.823235,119.76669 C119.978316,118.477709 121.146964,117.559226 122.433032,117.714525 C123.719099,117.870934 124.637401,119.040113 124.48232,120.327985 C124.327239,121.616967 123.15859,122.535449 121.872523,122.38015" id="Fill-174" fill="#1CA296"></path>
                <path d="M114.277527,353.451816 C112.433168,353.22996 111.1183,351.552731 111.340952,349.705783 C111.563605,347.859944 113.238483,346.54323 115.081735,346.766195 C116.924987,346.988051 118.239855,348.66528 118.017202,350.512228 C117.795658,352.358067 116.121887,353.673671 114.277527,353.451816" id="Fill-176" fill="#1CA296"></path>
                <path d="M359.528524,492.713948 C357.760598,492.532026 356.473423,490.950195 356.655089,489.179787 C356.835648,487.410488 358.415262,486.122616 360.183189,486.303428 C361.951116,486.48424 363.237183,488.066071 363.056624,489.83537 C362.874957,491.605779 361.296451,492.89476 359.528524,492.713948" id="Fill-178" fill="#1CA296"></path>
                <path d="M235.426707,534.897918 C233.65878,534.717105 232.372713,533.135274 232.553272,531.364866 C232.733831,529.595567 234.313445,528.306586 236.081372,528.487398 C237.849299,528.66821 239.135366,530.250041 238.954807,532.020449 C238.774248,533.790858 237.194634,535.07873 235.426707,534.897918" id="Fill-180" fill="#1CA296"></path>
                <path d="M335.013605,13.3236676 C332.599875,13.0762986 330.844133,10.9176429 331.091155,8.50163464 C331.338178,6.08562639 333.493808,4.32742021 335.90643,4.57478928 C338.317944,4.82104907 340.073686,6.97970474 339.827771,9.39571299 C339.580749,11.8117212 337.426227,13.5710367 335.013605,13.3236676" id="Fill-182" fill="#1CA296"></path>
                <path d="M502.178176,174.022826 C500.409141,173.842013 499.123074,172.260182 499.303633,170.489774 C499.484192,168.719366 501.063806,167.431494 502.83284,167.612306 C504.600767,167.793118 505.886834,169.374949 505.706275,171.145358 C505.524609,172.915766 503.946103,174.203638 502.178176,174.022826" id="Fill-184" fill="#1CA296"></path>
                <path d="M65.2142348,95.4010586 C62.7362571,95.1015534 60.969438,92.8474998 61.2674157,90.3660441 C61.566501,87.8845885 63.8173953,86.1152895 66.295373,86.4136854 C68.7733506,86.7131905 70.5412774,88.9672441 70.2421921,91.4486998 C69.9442144,93.9301555 67.6922124,95.7005637 65.2142348,95.4010586" id="Fill-186" fill="#1CA296"></path>
                <path d="M531.159659,214.842938 C529.510258,214.643268 528.333856,213.143523 528.532138,211.491808 C528.731528,209.838983 530.229171,208.660929 531.878571,208.85949 C533.529079,209.05916 534.705482,210.560014 534.506091,212.211729 C534.307809,213.863445 532.809059,215.041499 531.159659,214.842938" id="Fill-188" fill="#1CA296"></path>
                <path d="M535.841452,230.140995 C534.977428,230.036723 534.360426,229.250245 534.464552,228.385008 C534.568678,227.519771 535.354054,226.901903 536.218078,227.006175 C537.082103,227.110447 537.699105,227.896925 537.594979,228.762162 C537.490853,229.628509 536.705477,230.245268 535.841452,230.140995" id="Fill-190" fill="#1CA296"></path>
                <path d="M186.102657,40.868713 C185.238632,40.7644408 184.622738,39.9779625 184.725756,39.1127254 C184.83099,38.246379 185.615258,37.6296202 186.479283,37.7338924 C187.344415,37.8381645 187.960309,38.6246429 187.856183,39.48988 C187.752057,40.3551171 186.966681,40.9729852 186.102657,40.868713" id="Fill-192" fill="#1CA296"></path>
                <path d="M369.640822,377.840742 C368.776798,377.73647 368.159796,376.949992 368.263922,376.084755 C368.368048,375.219518 369.153424,374.601649 370.017448,374.705922 C370.881473,374.811303 371.498475,375.596672 371.394349,376.461909 C371.290223,377.328256 370.504847,377.945014 369.640822,377.840742" id="Fill-194" fill="#1CA296"></path>
                <path d="M396.960609,318.952593 C396.096584,318.848321 395.479582,318.061843 395.583708,317.196606 C395.687834,316.331369 396.47321,315.713501 397.337235,315.817773 C398.201259,315.922045 398.818261,316.708523 398.714135,317.57376 C398.610009,318.438998 397.824633,319.056866 396.960609,318.952593" id="Fill-196" fill="#1CA296"></path>
                <path d="M390.50258,24.5355876 C389.638556,24.4313155 389.021554,23.6448371 389.12568,22.7796 C389.230914,21.9143629 390.01629,21.2964948 390.879206,21.400767 C391.744338,21.5050392 392.360233,22.2915175 392.256107,23.1567546 C392.151981,24.023101 391.366605,24.6398598 390.50258,24.5355876" id="Fill-198" fill="#1CA296"></path>
                <path d="M414.687509,235.853113 C413.823485,235.748841 413.20759,234.962363 413.311716,234.097126 C413.415842,233.231889 414.201218,232.614021 415.065243,232.718293 C415.929267,232.822565 416.546269,233.609043 416.441036,234.47428 C416.33691,235.340627 415.551534,235.957386 414.687509,235.853113" id="Fill-200" fill="#1CA296"></path>
                <path d="M391.795294,153.027181 C390.931269,152.922909 390.314267,152.136431 390.418393,151.271194 C390.522519,150.404847 391.307895,149.788089 392.17192,149.892361 C393.035944,149.996633 393.652946,150.783111 393.54882,151.648348 C393.444694,152.514695 392.659318,153.131454 391.795294,153.027181" id="Fill-202" fill="#1CA296"></path>
                <path d="M202.12189,477.773299 C199.317134,477.434969 197.316585,474.883629 197.654441,472.073827 C197.992297,469.265134 200.540061,467.261778 203.344817,467.601217 C206.150681,467.939547 208.150122,470.490887 207.812266,473.300689 C207.474411,476.109382 204.926646,478.112739 202.12189,477.773299" id="Fill-204" fill="#1CA296"></path>
                <path d="M466.381645,377.286103 C464.810893,377.096416 463.690985,375.667666 463.879298,374.094709 C464.068718,372.521753 465.495466,371.400272 467.066218,371.589959 C468.636971,371.779645 469.757987,373.208396 469.568566,374.781353 C469.379145,376.354309 467.952397,377.47579 466.381645,377.286103" id="Fill-206" fill="#1CA296"></path>
                <path d="M191.526071,525.568665 C189.955319,525.378978 188.835411,523.950228 189.024831,522.377271 C189.214252,520.804314 190.639892,519.682834 192.210644,519.87252 C193.781396,520.062207 194.901305,521.490958 194.711884,523.063914 C194.523571,524.636871 193.096823,525.758351 191.526071,525.568665" id="Fill-208" fill="#1CA296"></path>
                <path d="M272.260621,536.545529 C270.613436,536.346968 269.439249,534.849442 269.637532,533.198836 C269.835814,531.549339 271.332349,530.373504 272.979534,530.570955 C274.627826,530.770626 275.800905,532.269261 275.603731,533.918758 C275.405448,535.568254 273.907806,536.745199 272.260621,536.545529" id="Fill-210" fill="#1CA296"></path>
                <path d="M455.783611,463.289896 C454.136426,463.091335 452.962239,461.5927 453.160521,459.942094 C453.359912,458.293706 454.855338,457.117871 456.502523,457.315322 C458.149708,457.514993 459.323895,459.013628 459.126721,460.663125 C458.928438,462.312621 457.430796,463.488456 455.783611,463.289896" id="Fill-212" fill="#1CA296"></path>
                <path d="M118.510472,51.1869984 C116.863287,50.9884375 115.687992,49.4898025 115.886274,47.8403056 C116.085665,46.1908087 117.582199,45.0138643 119.228276,45.2124252 C120.876569,45.410986 122.050756,46.909621 121.852474,48.5591179 C121.654191,50.2097241 120.157657,51.3855592 118.510472,51.1869984" id="Fill-214" fill="#1CA296"></path>
                <path d="M156.565207,352.709708 C154.918022,352.511148 153.742728,351.013622 153.94101,349.363016 C154.1404,347.713519 155.635827,346.537684 157.283012,346.736245 C158.931305,346.934805 160.105492,348.43344 159.907209,350.082937 C159.708927,351.732434 158.212392,352.909379 156.565207,352.709708" id="Fill-216" fill="#1CA296"></path>
                <path d="M139.612938,246.974627 C137.965753,246.776066 136.791566,245.277431 136.989849,243.627934 C137.188131,241.978438 138.684666,240.802602 140.331851,241.001163 C141.979036,241.199724 143.153223,242.698359 142.95494,244.347856 C142.756658,245.997353 141.260123,247.173188 139.612938,246.974627" id="Fill-218" fill="#1CA296"></path>
                <path d="M188.352775,312.791994 C186.70559,312.593433 185.531403,311.094798 185.729686,309.445301 C185.927968,307.795805 187.424503,306.619969 189.071688,306.817421 C190.718873,307.017091 191.89306,308.515726 191.694777,310.165223 C191.496495,311.81472 189.99996,312.991664 188.352775,312.791994" id="Fill-220" fill="#1CA296"></path>
                <path d="M25.5076616,162.270798 C23.8604766,162.072237 22.6862896,160.573602 22.8834644,158.924105 C23.0828547,157.274608 24.5793892,156.098773 26.2254665,156.297334 C27.8737591,156.494786 29.0479461,157.99453 28.8496636,159.644027 C28.6513811,161.293524 27.1548465,162.469359 25.5076616,162.270798" id="Fill-222" fill="#1CA296"></path>
                <path d="M511.93567,167.89251 C510.875578,167.764943 510.117895,166.799871 510.246391,165.737182 C510.374887,164.674493 511.337499,163.916856 512.398698,164.044423 C513.459897,164.17199 514.216473,165.138172 514.087977,166.20086 C513.960588,167.263549 512.996869,168.020077 511.93567,167.89251" id="Fill-224" fill="#1CA296"></path>
                <path d="M232.789882,430.05159 C231.728683,429.924023 230.972108,428.958951 231.100604,427.896262 C231.227992,426.834683 232.191711,426.075936 233.251803,426.203504 C234.313002,426.33218 235.070685,427.297252 234.942189,428.359941 C234.814801,429.422629 233.851081,430.179157 232.789882,430.05159" id="Fill-226" fill="#1CA296"></path>
                <path d="M515.744577,186.703652 C514.542697,186.558336 513.686427,185.465697 513.830431,184.26213 C513.975543,183.058563 515.067758,182.199982 516.269638,182.345297 C517.471518,182.490613 518.327789,183.583252 518.182677,184.786819 C518.037565,185.990386 516.946457,186.847858 515.744577,186.703652" id="Fill-228" fill="#1CA296"></path>
                <path d="M138.490039,177.826763 C136.585862,177.597142 135.227793,175.865559 135.458199,173.958709 C135.68639,172.05186 137.416654,170.691885 139.320831,170.921505 C141.225008,171.151126 142.583077,172.882709 142.353778,174.790668 C142.12448,176.696408 140.394215,178.056384 138.490039,177.826763" id="Fill-230" fill="#1CA296"></path>
                <path d="M87.9096077,390.782693 C86.0054309,390.553072 84.6473618,388.820379 84.8766606,386.914639 C85.1059593,385.00668 86.8351159,383.646705 88.7404004,383.876326 C90.6445772,384.105946 92.0015386,385.838639 91.7722398,387.745489 C91.5429411,389.652338 89.8137846,391.012313 87.9096077,390.782693" id="Fill-232" fill="#1CA296"></path>
                <path d="M126.03413,324.845635 C124.129953,324.616014 122.771884,322.883321 123.001183,320.976472 C123.230482,319.069622 124.959638,317.709647 126.864923,317.939268 C128.7691,318.168888 130.126061,319.901581 129.896762,321.808431 C129.667463,323.714171 127.938307,325.075255 126.03413,324.845635" id="Fill-234" fill="#1CA296"></path>
                <path d="M318.384791,6.67554062 C316.973551,6.50471175 315.965522,5.2212767 316.13722,3.80805608 C316.306701,2.39483546 317.588337,1.38650144 319.000685,1.55622103 C320.411925,1.7270499 321.417738,3.01048495 321.248256,4.42481485 C321.078774,5.83803546 319.79603,6.84526021 318.384791,6.67554062" id="Fill-236" fill="#1CA296"></path>
                <path d="M238.410139,30.8148796 C236.998899,30.64516 235.991979,29.3606157 236.16146,27.9473951 C236.33205,26.5341744 237.613686,25.5258404 239.026034,25.69556 C240.437273,25.8663889 241.443086,27.1498239 241.273605,28.5641538 C241.104123,29.9773744 239.821379,30.9845992 238.410139,30.8148796" id="Fill-238" fill="#1CA296"></path>
                <path d="M396.108215,357.645221 C393.399831,357.319093 391.469069,354.854276 391.79474,352.142091 C392.120411,349.431014 394.581772,347.496433 397.290157,347.82367 C399.998541,348.148689 401.930411,350.613505 401.603632,353.324581 C401.277961,356.037876 398.8166,357.972458 396.108215,357.645221" id="Fill-240" fill="#1CA296"></path>
                <path d="M268.724324,312.6002 C265.242749,312.179784 262.761448,309.015012 263.180168,305.528551 C263.599995,302.040979 266.761438,299.556196 270.243013,299.976612 C273.723481,300.39592 276.205889,303.562909 275.786062,307.048262 C275.367342,310.534724 272.205899,313.020616 268.724324,312.6002" id="Fill-242" fill="#1CA296"></path>
                <path d="M98.8883669,154.458261 C96.1954909,154.133243 94.2758059,151.685066 94.6003689,148.98841 C94.9249319,146.291754 97.3707856,144.369375 100.063662,144.694393 C102.75543,145.019412 104.675115,147.468699 104.350552,150.164245 C104.027097,152.860901 101.581243,154.78328 98.8883669,154.458261" id="Fill-244" fill="#1CA296"></path>
                <path d="M29.3895681,397.935652 C26.8717124,397.632819 25.0760925,395.34216 25.3796087,392.821879 C25.683125,390.29938 27.9694665,388.50124 30.4873222,388.806292 C33.0051778,389.109125 34.8007978,391.398675 34.4972815,393.921174 C34.1937652,396.441454 31.9074238,398.239595 29.3895681,397.935652" id="Fill-246" fill="#1CA296"></path>
                <path d="M254.997857,478.041967 C254.184788,477.94435 253.60434,477.203352 253.70182,476.389142 C253.800408,475.573822 254.539259,474.99256 255.353436,475.091286 C256.166505,475.188903 256.746952,475.929901 256.649473,476.744111 C256.550885,477.558321 255.812034,478.140692 254.997857,478.041967" id="Fill-248" fill="#1CA296"></path>
                <path d="M332.723497,92.5677398 C331.910428,92.4701233 331.328873,91.7291254 331.42746,90.9149151 C331.52494,90.0995955 332.264899,89.5183336 333.077968,89.6170594 C333.892145,89.7146759 334.472592,90.4556738 334.374005,91.2698841 C334.275418,92.0852037 333.536566,92.6653563 332.723497,92.5677398" id="Fill-250" fill="#1CA296"></path>
                <path d="M282.144728,6.59545072 C281.331659,6.49783423 280.750104,5.75683629 280.848691,4.94262598 C280.946171,4.12730639 281.68613,3.54604454 282.499199,3.64366103 C283.313376,3.7423868 283.893823,4.48227546 283.795236,5.29759505 C283.696648,6.11180536 282.957797,6.69306722 282.144728,6.59545072" id="Fill-252" fill="#1CA296"></path>
                <path d="M376.112919,348.448083 C375.298742,348.350466 374.718295,347.610578 374.816882,346.795258 C374.914362,345.979939 375.654321,345.399786 376.46739,345.497402 C377.281567,345.596128 377.862014,346.336017 377.763427,347.150227 C377.664839,347.965547 376.925988,348.546809 376.112919,348.448083" id="Fill-254" fill="#1CA296"></path>
                <path d="M292.483112,19.1669023 C291.670043,19.0692858 291.088488,18.3293971 291.187075,17.5140775 C291.285663,16.6987579 292.024514,16.1174961 292.837583,16.2162219 C293.652868,16.3138384 294.232207,17.0548363 294.13362,17.8690466 C294.03614,18.6843662 293.297289,19.265628 292.483112,19.1669023" id="Fill-256" fill="#1CA296"></path>
                <path d="M501.553974,409.857067 C500.740904,409.75945 500.160457,409.018452 500.257937,408.204242 C500.356524,407.388922 501.095376,406.807661 501.909553,406.906386 C502.72373,407.005112 503.303069,407.745001 503.205589,408.559211 C503.107002,409.373421 502.36815,409.955793 501.553974,409.857067" id="Fill-258" fill="#1CA296"></path>
                <path d="M273.460286,353.802791 C272.647216,353.705175 272.065662,352.964177 272.164249,352.149967 C272.261729,351.334647 273.001688,350.753385 273.814757,350.852111 C274.628934,350.949727 275.209381,351.690725 275.110794,352.504936 C275.012206,353.319146 274.273355,353.901517 273.460286,353.802791" id="Fill-260" fill="#1CA296"></path>
                <path d="M524.913538,139.157431 C524.100468,139.059814 523.518914,138.318816 523.617501,137.504606 C523.714981,136.689286 524.45494,136.108024 525.268009,136.20675 C526.082186,136.304367 526.662633,137.044255 526.564046,137.859575 C526.466566,138.674894 525.726607,139.255047 524.913538,139.157431" id="Fill-262" fill="#1CA296"></path>
                <path d="M36.4106524,317.758788 C35.5975833,317.660062 35.0171362,316.920174 35.1146159,316.105963 C35.2120955,315.289534 35.9520549,314.709382 36.765124,314.806998 C37.5793008,314.905724 38.159748,315.645613 38.0622683,316.460932 C37.9636809,317.275143 37.2248293,317.856405 36.4106524,317.758788" id="Fill-264" fill="#1CA296"></path>
                <path d="M497.58932,315.717938 C496.776251,315.619212 496.195804,314.879323 496.293284,314.065113 C496.391871,313.248684 497.130723,312.668532 497.943792,312.766148 C498.759076,312.864874 499.338416,313.604762 499.240936,314.420082 C499.142349,315.234292 498.403497,315.815554 497.58932,315.717938" id="Fill-266" fill="#1CA296"></path>
                <path d="M478.015955,214.58137 C477.202886,214.483753 476.622439,213.742755 476.719919,212.928545 C476.818506,212.113226 477.557358,211.531964 478.371535,211.62958 C479.185711,211.728306 479.765051,212.468195 479.667571,213.283514 C479.568984,214.097725 478.830132,214.678986 478.015955,214.58137" id="Fill-268" fill="#1CA296"></path>
                <path d="M231.544247,259.147959 C230.731178,259.050342 230.150731,258.309344 230.24821,257.495134 C230.34569,256.679814 231.085649,256.098553 231.898718,256.196169 C232.712895,256.294895 233.293342,257.034784 233.195863,257.850103 C233.097275,258.664313 232.358424,259.245575 231.544247,259.147959" id="Fill-270" fill="#1CA296"></path>
                <path d="M475.46952,253.428298 C473.117823,253.144322 471.44073,251.005634 471.724307,248.650636 C472.007884,246.295638 474.143575,244.6173 476.495272,244.901275 C478.845862,245.184141 480.522955,247.323939 480.240486,249.677828 C479.956909,252.032826 477.82011,253.711164 475.46952,253.428298" id="Fill-272" fill="#1CA296"></path>
                <path d="M4.94554268,222.657138 C2.59384553,222.373163 0.917859756,220.234474 1.20032927,217.879476 C1.4839065,215.524478 3.61959756,213.84614 5.97129472,214.130115 C8.32299187,214.412981 9.99897764,216.552779 9.71650813,218.906668 C9.43293089,221.261666 7.29723984,222.940004 4.94554268,222.657138" id="Fill-274" fill="#1CA296"></path>
                <path d="M189.84931,267.704821 C187.497613,267.421955 185.821627,265.282157 186.105204,262.928268 C186.387674,260.573271 188.523365,258.893823 190.875062,259.177798 C193.226759,259.461774 194.902745,261.600462 194.620275,263.95546 C194.336698,266.309349 192.201007,267.988796 189.84931,267.704821" id="Fill-276" fill="#1CA296"></path>
                <path d="M313.398927,339.484005 C311.04723,339.200029 309.370136,337.061341 309.653713,334.706343 C309.937291,332.351345 312.072982,330.673007 314.424679,330.956982 C316.776376,331.239848 318.452362,333.378536 318.169892,335.733534 C317.886315,338.088532 315.750624,339.76798 313.398927,339.484005" id="Fill-278" fill="#1CA296"></path>
                <path d="M534.628827,240.258834 C532.27713,239.975968 530.600037,237.83617 530.883614,235.481172 C531.167191,233.127284 533.302882,231.447836 535.654579,231.731812 C538.005169,232.014678 539.682262,234.154475 539.398685,236.508364 C539.116215,238.863362 536.979417,240.542809 534.628827,240.258834" id="Fill-280" fill="#1CA296"></path>
                <path d="M364.870189,421.525122 C362.518492,421.241147 360.841398,419.102458 361.124976,416.74746 C361.408553,414.392462 363.544244,412.714124 365.895941,412.998099 C368.247638,413.280965 369.923624,415.419654 369.641154,417.774652 C369.357577,420.12965 367.220778,421.809097 364.870189,421.525122" id="Fill-282" fill="#1CA296"></path>
                <path d="M517.931888,211.27572 C515.580191,210.991745 513.903098,208.853056 514.186675,206.498059 C514.470252,204.14417 516.605943,202.464722 518.95764,202.748698 C521.309337,203.031564 522.985323,205.171362 522.702854,207.52525 C522.419276,209.880248 520.283585,211.558586 517.931888,211.27572" id="Fill-284" fill="#1CA296"></path>
                <g id="Group-288" transform="translate(0.000000, 261.898969)">
                    <mask id="mask-4" fill="white">
                        <use xlink:href="#path-3"></use>
                    </mask>
                    <g id="Clip-287"></g>
                    <path d="M2.62353252,6.51002186 C0.989640244,6.31257031 -0.174577236,4.8272466 0.0214898374,3.19106103 C0.218664634,1.55487546 1.7019065,0.387914639 3.33579878,0.585366186 C4.96969106,0.782817732 6.13501626,2.26925072 5.93784146,3.90432701 C5.74066667,5.54051258 4.2574248,6.7074734 2.62353252,6.51002186" id="Fill-286" fill="#1CA296" mask="url(#mask-4)"></path>
                </g>
                <path d="M341.383015,332.918186 C339.032426,332.634211 337.355332,330.495522 337.63891,328.140524 C337.921379,325.785526 340.058178,324.107188 342.408767,324.391163 C344.760464,324.674029 346.43645,326.812718 346.153981,329.167716 C345.871511,331.522714 343.734712,333.202161 341.383015,332.918186" id="Fill-289" fill="#1CA296"></path>
                <path d="M348.414512,143.076733 C347.235894,142.934745 346.394024,141.860964 346.535813,140.679582 C346.677602,139.497092 347.74877,138.655149 348.929604,138.797137 C350.109329,138.940234 350.951199,140.012906 350.809411,141.194287 C350.666514,142.376778 349.594238,143.21872 348.414512,143.076733" id="Fill-291" fill="#1CA296"></path>
                <path d="M257.212196,115.714718 C256.032471,115.572731 255.190601,114.498949 255.332389,113.316459 C255.475286,112.135077 256.546454,111.293135 257.727288,111.435122 C258.907013,111.57711 259.748883,112.650892 259.607095,113.832273 C259.464198,115.014764 258.391922,115.856706 257.212196,115.714718" id="Fill-293" fill="#1CA296"></path>
                <path d="M178.194396,33.6281204 C177.014671,33.4861328 176.172801,32.4123513 176.315697,31.2298606 C176.457486,30.0484792 177.528654,29.2065369 178.709488,29.3485245 C179.889213,29.4905122 180.731083,30.5642936 180.589295,31.7456751 C180.446398,32.9281658 179.374122,33.770108 178.194396,33.6281204" id="Fill-295" fill="#1CA296"></path>
                <path d="M90.1498679,72.7426062 C88.9701423,72.6006186 88.1282724,71.5268371 88.270061,70.3454557 C88.4129573,69.1629649 89.484126,68.3210227 90.6649593,68.4630103 C91.844685,68.6061072 92.6865549,69.6787794 92.5436585,70.8612701 C92.4018699,72.0426515 91.3295935,72.8845938 90.1498679,72.7426062" id="Fill-297" fill="#1CA296"></path>
                <path d="M2.30218191,278.617236 C1.1224563,278.475248 0.280586382,277.401467 0.423482724,276.218976 C0.565271341,275.037595 1.63644004,274.195652 2.81727337,274.33764 C3.99699898,274.479628 4.8388689,275.553409 4.69708028,276.734791 C4.55418394,277.917281 3.48190752,278.759224 2.30218191,278.617236" id="Fill-299" fill="#1CA296"></path>
                <path d="M349.762279,42.6306907 C348.769759,42.5108887 348.063032,41.6090454 348.182666,40.6162412 C348.3023,39.6234371 349.202879,38.9146082 350.195399,39.0344103 C351.185704,39.1542124 351.89354,40.0560557 351.773905,41.0488598 C351.654271,42.0427732 350.753692,42.7504928 349.762279,42.6306907" id="Fill-301" fill="#1CA296"></path>
                <path d="M542.229251,313.451682 C541.236731,313.332989 540.530003,312.430037 540.649637,311.437233 C540.769271,310.444428 541.669851,309.7356 542.661263,309.855402 C543.652676,309.975204 544.360511,310.877047 544.239769,311.869851 C544.121243,312.863765 543.220664,313.571484 542.229251,313.451682" id="Fill-303" fill="#1CA296"></path>
                <path d="M357.289261,255.183176 C356.297849,255.063374 355.591121,254.161531 355.710755,253.168727 C355.830389,252.175922 356.729861,251.467094 357.722381,251.586896 C358.713794,251.706698 359.421629,252.608541 359.300887,253.601345 C359.182361,254.594149 358.281782,255.302978 357.289261,255.183176" id="Fill-305" fill="#1CA296"></path>
                <path d="M120.033591,277.635746 C119.2316,277.539239 118.660014,276.810443 118.756386,276.007326 C118.852758,275.204208 119.58164,274.631821 120.382524,274.728328 C121.184516,274.825944 121.756102,275.55474 121.65973,276.357858 C121.563358,277.159866 120.835583,277.732254 120.033591,277.635746" id="Fill-307" fill="#1CA296"></path>
                <path d="M90.0693364,283.264003 C88.8585945,283.117578 87.9956778,282.017174 88.1407896,280.804733 C88.2870091,279.592292 89.3869787,278.728164 90.5977205,278.874588 C91.8073547,279.021013 92.6713791,280.121417 92.5251596,281.333859 C92.37894,282.5463 91.2789705,283.410428 90.0693364,283.264003" id="Fill-309" fill="#1CA296"></path>
                <path d="M20.831185,377.399915 C21.9444472,377.534138 22.9557988,376.738785 23.0898333,375.62396 C23.2238679,374.510245 22.4296301,373.496365 21.3163679,373.362142 C20.2042134,373.227919 19.1928618,374.023272 19.0577195,375.138096 C18.923685,376.252921 19.7179228,377.265692 20.831185,377.399915" id="Fill-311" fill="#1CA296"></path>
                <path d="M532.291198,315.721155 C533.40446,315.855377 534.415812,315.060025 534.549847,313.9452 C534.683881,312.831485 533.889643,311.817604 532.776381,311.683381 C531.664227,311.549159 530.652875,312.344511 530.517733,313.459336 C530.383698,314.574161 531.177936,315.586932 532.291198,315.721155" id="Fill-313" fill="#1CA296"></path>
                <path d="M106.371483,68.9067216 C105.649247,68.8190887 105.134155,68.1623959 105.221666,67.4391464 C105.308068,66.7158969 105.96384,66.2011918 106.686076,66.2877155 C107.40942,66.3742392 107.923403,67.0320412 107.837001,67.7552907 C107.749491,68.4785402 107.093718,68.9943546 106.371483,68.9067216" id="Fill-315" fill="#1CA296"></path>
                <path d="M357.112912,15.3071682 C356.391784,15.2195353 355.876692,14.5628425 355.963095,13.839593 C356.050605,13.1163435 356.706377,12.6016384 357.428613,12.6881621 C358.150849,12.7746858 358.664832,13.4324878 358.57843,14.154628 C358.49092,14.8789868 357.835147,15.3948012 357.112912,15.3071682" id="Fill-317" fill="#1CA296"></path>
                <path d="M231.555546,115.723925 C230.83331,115.636292 230.318218,114.9796 230.405729,114.25635 C230.493239,113.533101 231.149011,113.018395 231.871247,113.104919 C232.593483,113.191443 233.107466,113.849245 233.021064,114.571385 C232.934662,115.294635 232.277782,115.811558 231.555546,115.723925" id="Fill-319" fill="#1CA296"></path>
                <path d="M242.632782,21.8046553 C241.910546,21.7170223 241.395454,21.0614388 241.482964,20.3381893 C241.570475,19.6138305 242.226247,19.0991254 242.948483,19.1856491 C243.670718,19.2732821 244.184702,19.9299748 244.0983,20.6532243 C244.011897,21.3764738 243.355017,21.8922882 242.632782,21.8046553" id="Fill-321" fill="#1CA296"></path>
                <path d="M2.9935122,238.023527 C2.27127642,237.935894 1.75618496,237.279202 1.8425874,236.555952 C1.93009756,235.832703 2.58586992,235.317998 3.30810569,235.404521 C4.03034146,235.491045 4.54543293,236.148847 4.45903049,236.870987 C4.37152033,237.594237 3.71574797,238.110051 2.9935122,238.023527" id="Fill-323" fill="#1CA296"></path>
                <path d="M359.129301,14.0397068 C358.407065,13.9531831 357.891974,13.2964903 357.978376,12.5732408 C358.065886,11.8488821 358.721659,11.3341769 359.443894,11.4207006 C360.16613,11.5083336 360.680114,12.1650264 360.593711,12.8882759 C360.507309,13.6115254 359.850429,14.1273398 359.129301,14.0397068" id="Fill-325" fill="#1CA296"></path>
                <path d="M407.816189,467.173368 C407.095061,467.086845 406.57997,466.430152 406.666372,465.706902 C406.752774,464.982544 407.409654,464.467838 408.13189,464.555471 C408.854126,464.641995 409.36811,465.299797 409.281707,466.021937 C409.194197,466.745187 408.538425,467.261001 407.816189,467.173368" id="Fill-327" fill="#1CA296"></path>
                <path d="M444.654423,473.698033 C443.932187,473.611509 443.417096,472.954816 443.504606,472.231567 C443.591008,471.507208 444.24678,470.992503 444.969016,471.080136 C445.69236,471.166659 446.206343,471.823352 446.118833,472.546602 C446.032431,473.269851 445.375551,473.785666 444.654423,473.698033" id="Fill-329" fill="#1CA296"></path>
                <path d="M381.129134,384.484543 C380.408006,384.398019 379.892915,383.740217 379.979317,383.018077 C380.06572,382.293718 380.7226,381.779013 381.443728,381.865537 C382.167071,381.95317 382.681055,382.609863 382.594652,383.333112 C382.507142,384.055252 381.85137,384.572176 381.129134,384.484543" id="Fill-331" fill="#1CA296"></path>
                <path d="M481.731814,90.7380961 C481.010686,90.6504631 480.495595,89.9937703 480.581997,89.2705208 C480.668399,88.5472713 481.325279,88.0325662 482.046408,88.1190899 C482.769751,88.2056136 483.283735,88.8634157 483.197332,89.5855559 C483.109822,90.3099146 482.45405,90.8257291 481.731814,90.7380961" id="Fill-333" fill="#1CA296"></path>
                <path d="M541.749053,290.195883 C541.027925,290.10936 540.512833,289.451558 540.599236,288.729417 C540.685638,288.005059 541.342518,287.490353 542.063646,287.576877 C542.78699,287.66451 543.300974,288.321203 543.214571,289.044452 C543.127061,289.766593 542.471289,290.283516 541.749053,290.195883" id="Fill-335" fill="#1CA296"></path>
                <path d="M532.793108,194.765998 C532.070872,194.678365 531.55578,194.021672 531.643291,193.298423 C531.729693,192.575173 532.385465,192.060468 533.107701,192.146992 C533.831045,192.233515 534.345028,192.891318 534.257518,193.613458 C534.171116,194.337816 533.514236,194.853631 532.793108,194.765998" id="Fill-337" fill="#1CA296"></path>
                <path d="M201.108877,90.7375414 C200.386641,90.6510177 199.87155,89.9943249 199.95906,89.2710755 C200.045462,88.5467167 200.701235,88.0320115 201.423471,88.1185353 C202.146814,88.2061682 202.660798,88.862861 202.574395,89.5861105 C202.486885,90.30936 201.831113,90.8251744 201.108877,90.7375414" id="Fill-339" fill="#1CA296"></path>
                <path d="M100.279003,503.189196 C99.5567673,503.102672 99.0416758,502.44487 99.129186,501.72273 C99.2155884,500.998371 99.8713608,500.483666 100.593597,500.57019 C101.31694,500.657823 101.830924,501.314515 101.744521,502.037765 C101.657011,502.759905 101.001239,503.27572 100.279003,503.189196" id="Fill-341" fill="#1CA296"></path>
                <path d="M519.307902,159.531213 C518.585667,159.444689 518.070575,158.787997 518.156978,158.064747 C518.244488,157.340388 518.90026,156.825683 519.622496,156.912207 C520.344732,156.99984 520.858715,157.656533 520.772313,158.379782 C520.685911,159.103032 520.02903,159.618846 519.307902,159.531213" id="Fill-343" fill="#1CA296"></path>
                <path d="M155.69221,275.987026 C154.969975,275.900502 154.454883,275.243809 154.542393,274.52056 C154.628796,273.796201 155.284568,273.281496 156.006804,273.36802 C156.730147,273.455653 157.244131,274.112346 157.157729,274.835595 C157.070218,275.558845 156.414446,276.074659 155.69221,275.987026" id="Fill-345" fill="#1CA296"></path>
                <path d="M60.0861392,98.7033802 C59.3639035,98.6157472 58.848812,97.9590544 58.9352144,97.2358049 C59.0227246,96.5125555 59.678497,95.996741 60.4007327,96.084374 C61.1229685,96.1708977 61.63806,96.8286998 61.5505498,97.55084 C61.4641474,98.2740895 60.808375,98.7899039 60.0861392,98.7033802" id="Fill-347" fill="#1CA296"></path>
                <path d="M234.71001,500.061807 C233.987774,499.974174 233.472683,499.317482 233.560193,498.594232 C233.646596,497.870983 234.302368,497.356278 235.024604,497.442801 C235.747947,497.530434 236.261931,498.187127 236.175528,498.910376 C236.088018,499.632517 235.432246,500.148331 234.71001,500.061807" id="Fill-349" fill="#1CA296"></path>
                <path d="M2.14532825,293.113174 C1.42309248,293.026651 0.908001016,292.369958 0.995511179,291.646708 C1.08191362,290.92235 1.73768598,290.407645 2.45992175,290.495278 C3.18326524,290.581801 3.69724898,291.239603 3.61084654,291.961744 C3.52333638,292.684993 2.86756402,293.200807 2.14532825,293.113174" id="Fill-351" fill="#1CA296"></path>
                <path d="M165.873741,64.685252 C165.151505,64.597619 164.636414,63.9420355 164.722816,63.2176767 C164.810326,62.4944272 165.466099,61.9797221 166.188334,62.0662458 C166.91057,62.1538788 167.425662,62.8105715 167.339259,63.5327118 C167.251749,64.2570705 166.595977,64.7728849 165.873741,64.685252" id="Fill-353" fill="#1CA296"></path>
                <path d="M360.082386,72.5926318 C359.361258,72.5049988 358.846167,71.848306 358.932569,71.1250565 C359.018972,70.401807 359.675852,69.8871019 360.398087,69.9736256 C361.120323,70.0612586 361.634307,70.7179513 361.547904,71.4400915 C361.460394,72.1644503 360.804622,72.6802647 360.082386,72.5926318" id="Fill-355" fill="#1CA296"></path>
                <path d="M369.314044,265.421815 C368.591808,265.335292 368.076716,264.678599 368.163119,263.955349 C368.250629,263.2321 368.906401,262.716285 369.628637,262.802809 C370.350873,262.890442 370.864857,263.547135 370.778454,264.270384 C370.692052,264.993634 370.035172,265.509448 369.314044,265.421815" id="Fill-357" fill="#1CA296"></path>
                <path d="M191.508791,3.47449608 C190.786555,3.38686309 190.271463,2.73127959 190.357866,2.00692082 C190.445376,1.28367134 191.101148,0.768966186 191.823384,0.855489897 C192.54562,0.943122887 193.060711,1.59981567 192.974309,2.32306515 C192.886799,3.04631464 192.231026,3.56212907 191.508791,3.47449608" id="Fill-359" fill="#1CA296"></path>
            </g>
        </g>
    </g>
</svg>